<svg width="127" height="38" viewBox="0 0 127 38" fill="none" xmlns="http://www.w3.org/2000/svg">
<rect y="0.259766" width="127" height="37.3858" rx="18.6929" fill="#010101"/>
<path d="M33.5226 21.261L31.9408 21.233C31.9408 21.8769 32.1088 22.4509 32.4448 22.9548C32.7807 23.4587 33.2427 23.8367 33.8306 24.1167C34.4185 24.3966 35.0905 24.5366 35.8744 24.5366C36.5743 24.5366 37.1902 24.4106 37.7502 24.1587C38.2961 23.9067 38.7301 23.5427 39.038 23.0808C39.346 22.6328 39.5 22.1149 39.5 21.527C39.5 20.939 39.346 20.4491 39.066 20.0851C38.772 19.7212 38.3941 19.4552 37.9461 19.2592C37.4842 19.0772 36.9383 18.9233 36.3083 18.8113C35.6784 18.6993 35.2024 18.6013 34.8665 18.5033C34.5305 18.4193 34.2506 18.2793 34.0546 18.0834C33.8586 17.9014 33.7606 17.6494 33.7606 17.3274C33.7606 16.8795 33.9286 16.5435 34.2646 16.2916C34.6005 16.0396 35.0625 15.9136 35.6364 15.9136C36.2243 15.9136 36.7003 16.0676 37.0922 16.3755C37.4702 16.6835 37.6942 17.0895 37.7502 17.5934H39.332C39.304 17.0055 39.122 16.4875 38.814 16.0256C38.4921 15.5776 38.0581 15.2137 37.5122 14.9477C36.9522 14.6957 36.3363 14.5557 35.6364 14.5557C34.9505 14.5557 34.3485 14.6817 33.8166 14.9197C33.2847 15.1717 32.8787 15.5076 32.5847 15.9416C32.2908 16.3895 32.1508 16.8795 32.1508 17.4394C32.1508 18.0554 32.2908 18.5453 32.5707 18.9093C32.8507 19.2872 33.2287 19.5672 33.6766 19.7492C34.1246 19.9311 34.6705 20.0711 35.3144 20.1831C35.9304 20.2951 36.4203 20.4071 36.7703 20.5051C37.1062 20.6171 37.3862 20.7571 37.5822 20.953C37.7782 21.149 37.8901 21.401 37.8901 21.7229C37.8901 22.1849 37.6942 22.5488 37.3302 22.8008C36.9662 23.0528 36.4763 23.1788 35.8884 23.1788C35.2024 23.1788 34.6425 23.0108 34.2226 22.6608C33.8026 22.3109 33.5646 21.8489 33.5226 21.261ZM46.6144 17.9854C46.0825 17.4674 45.3826 17.2014 44.5287 17.2014C43.5628 17.2014 42.8069 17.5794 42.2749 18.3213V14.6537H40.7631V24.4526H42.2749V20.827C42.2749 20.1131 42.4429 19.5532 42.7789 19.1332C43.1148 18.7133 43.5908 18.5033 44.1927 18.5033C44.7527 18.5033 45.1726 18.6853 45.4666 19.0352C45.7605 19.3992 45.9145 19.9171 45.9145 20.5891V24.4526H47.4264V20.5051C47.4264 19.3572 47.1464 18.5173 46.6144 17.9854ZM50.2711 24.0887C50.831 24.3966 51.461 24.5366 52.1889 24.5366C52.9028 24.5366 53.5327 24.3966 54.0927 24.0887C54.6526 23.7807 55.0726 23.3608 55.3805 22.8008C55.6885 22.2409 55.8425 21.597 55.8425 20.869C55.8425 20.1551 55.6885 19.5252 55.3805 18.9653C55.0726 18.4053 54.6526 17.9714 54.0927 17.6634C53.5327 17.3554 52.9028 17.2014 52.1889 17.2014C51.461 17.2014 50.831 17.3554 50.2711 17.6634C49.7112 17.9714 49.2912 18.4053 48.9832 18.9653C48.6753 19.5252 48.5353 20.1551 48.5353 20.869C48.5353 21.597 48.6753 22.2409 48.9832 22.8008C49.2912 23.3608 49.7112 23.7807 50.2711 24.0887ZM53.7147 22.5908C53.3228 23.0388 52.8188 23.2488 52.1889 23.2488C51.545 23.2488 51.041 23.0388 50.6631 22.5908C50.2711 22.1429 50.0891 21.569 50.0891 20.869C50.0891 20.1691 50.2711 19.6092 50.6631 19.1612C51.041 18.7133 51.545 18.4893 52.1889 18.4893C52.8188 18.4893 53.3228 18.7133 53.7147 19.1612C54.1067 19.6092 54.3026 20.1691 54.3026 20.869C54.3026 21.569 54.1067 22.1429 53.7147 22.5908ZM62.6435 17.6494C62.1256 17.3554 61.5376 17.2014 60.8937 17.2014C59.9138 17.2014 59.1299 17.5934 58.556 18.3493L58.374 17.2854H57.0582V27.2523H58.57V23.4447C58.794 23.7807 59.1159 24.0467 59.5079 24.2427C59.8998 24.4386 60.3618 24.5366 60.8937 24.5366C61.5376 24.5366 62.1256 24.3966 62.6435 24.0887C63.1475 23.7807 63.5534 23.3608 63.8474 22.8008C64.1274 22.2409 64.2813 21.597 64.2813 20.869C64.2813 20.1271 64.1274 19.4832 63.8474 18.9233C63.5534 18.3633 63.1475 17.9434 62.6435 17.6494ZM62.1536 22.5908C61.7616 23.0388 61.2577 23.2628 60.6418 23.2628C60.0118 23.2628 59.5079 23.0388 59.1299 22.5908C58.738 22.1429 58.556 21.569 58.556 20.841C58.556 20.1411 58.738 19.5812 59.1299 19.1472C59.5079 18.7133 60.0118 18.4893 60.6418 18.4893C61.2577 18.4893 61.7616 18.7133 62.1536 19.1472C62.5455 19.5952 62.7415 20.1691 62.7415 20.869C62.7415 21.569 62.5455 22.1429 62.1536 22.5908ZM74.9257 17.9854C74.3938 17.4674 73.6939 17.2014 72.854 17.2014C71.8601 17.2014 71.0902 17.5514 70.5582 18.2233L70.3902 17.2854H69.0744V24.4526H70.5862V20.841C70.5862 20.1131 70.7542 19.5532 71.0902 19.1332C71.4261 18.7133 71.9021 18.5033 72.504 18.5033C73.0639 18.5033 73.4839 18.6853 73.7779 19.0352C74.0578 19.3992 74.2118 19.9171 74.2118 20.5891V24.4526H75.7376V20.5051C75.7376 19.3572 75.4577 18.5173 74.9257 17.9854ZM78.5824 24.0887C79.1423 24.3966 79.7722 24.5366 80.5002 24.5366C81.2141 24.5366 81.844 24.3966 82.404 24.0887C82.9639 23.7807 83.3838 23.3608 83.6918 22.8008C83.9998 22.2409 84.1538 21.597 84.1538 20.869C84.1538 20.1551 83.9998 19.5252 83.6918 18.9653C83.3838 18.4053 82.9639 17.9714 82.404 17.6634C81.844 17.3554 81.2141 17.2014 80.5002 17.2014C79.7722 17.2014 79.1423 17.3554 78.5824 17.6634C78.0224 17.9714 77.6025 18.4053 77.2945 18.9653C76.9866 19.5252 76.8466 20.1551 76.8466 20.869C76.8466 21.597 76.9866 22.2409 77.2945 22.8008C77.6025 23.3608 78.0224 23.7807 78.5824 24.0887ZM82.026 22.5908C81.634 23.0388 81.1301 23.2488 80.5002 23.2488C79.8562 23.2488 79.3523 23.0388 78.9743 22.5908C78.5824 22.1429 78.4004 21.569 78.4004 20.869C78.4004 20.1691 78.5824 19.6092 78.9743 19.1612C79.3523 18.7133 79.8562 18.4893 80.5002 18.4893C81.1301 18.4893 81.634 18.7133 82.026 19.1612C82.418 19.6092 82.6139 20.1691 82.6139 20.869C82.6139 21.569 82.418 22.1429 82.026 22.5908ZM84.4785 17.2854L86.8162 24.4666L88.454 24.4526L90.0218 19.5812L91.5337 24.4526H93.1575L95.5372 17.2854H93.9974L92.3036 22.7728L90.7358 17.2854H89.3499L87.7121 22.7728L86.0743 17.2854H84.4785Z" fill="white"/>
</svg>
