<svg width="96" height="29" viewBox="0 0 96 29" fill="none" xmlns="http://www.w3.org/2000/svg">
<rect x="0.195801" y="0.333252" width="95.1028" height="28.2657" rx="14.1329" fill="#010101"/>
<path d="M33.6676 16.5761L32.4831 16.5551C32.4831 17.0373 32.6088 17.4671 32.8604 17.8445C33.112 18.2219 33.4579 18.5049 33.8982 18.7145C34.3385 18.9242 34.8416 19.029 35.4287 19.029C35.9528 19.029 36.414 18.9347 36.8333 18.746C37.2422 18.5573 37.5671 18.2848 37.7977 17.9388C38.0284 17.6034 38.1437 17.2155 38.1437 16.7753C38.1437 16.335 38.0284 15.9681 37.8187 15.6956C37.5986 15.423 37.3155 15.2238 36.9801 15.0771C36.6342 14.9408 36.2253 14.8255 35.7536 14.7416C35.2819 14.6578 34.9255 14.5844 34.6739 14.511C34.4223 14.4481 34.2127 14.3433 34.0659 14.1965C33.9192 14.0603 33.8458 13.8716 33.8458 13.6305C33.8458 13.295 33.9716 13.0435 34.2232 12.8548C34.4747 12.6661 34.8207 12.5717 35.2505 12.5717C35.6907 12.5717 36.0471 12.687 36.3407 12.9177C36.6237 13.1483 36.7914 13.4523 36.8333 13.8297H38.0179C37.9969 13.3894 37.8606 13.0015 37.63 12.6556C37.3889 12.3202 37.064 12.0476 36.6551 11.8484C36.2358 11.6598 35.7746 11.5549 35.2505 11.5549C34.7368 11.5549 34.2861 11.6493 33.8877 11.8275C33.4894 12.0162 33.1854 12.2677 32.9653 12.5927C32.7451 12.9281 32.6403 13.295 32.6403 13.7143C32.6403 14.1756 32.7451 14.5425 32.9548 14.815C33.1644 15.098 33.4475 15.3077 33.7829 15.444C34.1183 15.5802 34.5272 15.6851 35.0094 15.7689C35.4706 15.8528 35.8375 15.9367 36.0996 16.01C36.3511 16.0939 36.5608 16.1987 36.7075 16.3455C36.8543 16.4922 36.9382 16.6809 36.9382 16.922C36.9382 17.2679 36.7914 17.5405 36.5189 17.7292C36.2463 17.9179 35.8794 18.0122 35.4391 18.0122C34.9255 18.0122 34.5062 17.8864 34.1917 17.6244C33.8772 17.3623 33.699 17.0164 33.6676 16.5761ZM39.2153 14.8465C38.9952 15.2658 38.8904 15.748 38.8904 16.2931C38.8904 16.8382 38.9952 17.3204 39.2258 17.7292C39.4564 18.1485 39.7709 18.463 40.1902 18.6936C40.6095 18.9242 41.0917 19.029 41.6578 19.029C42.2972 19.029 42.8318 18.8613 43.2616 18.5049C43.6914 18.159 43.9535 17.7082 44.0583 17.1631H42.9262C42.8423 17.4671 42.6851 17.6977 42.4545 17.8655C42.2134 18.0332 41.9199 18.1066 41.5739 18.1066C41.1337 18.1066 40.7772 17.9703 40.5152 17.6977C40.2426 17.4252 40.0959 17.0583 40.0749 16.5866V16.5237H44.1212C44.1422 16.3769 44.1526 16.2406 44.1526 16.0939C44.1422 15.5802 44.0269 15.1295 43.7962 14.7416C43.5656 14.3643 43.2616 14.0603 42.8633 13.8506C42.4649 13.641 42.0142 13.5361 41.5005 13.5361C40.9869 13.5361 40.5361 13.6514 40.1378 13.8821C39.7395 14.1127 39.4355 14.4272 39.2153 14.8465ZM42.9996 15.6956H40.1168C40.1588 15.3182 40.3055 15.0247 40.5781 14.7941C40.8506 14.5634 41.1651 14.4481 41.5425 14.4481C41.9408 14.4481 42.2658 14.5634 42.5278 14.7836C42.7899 15.0037 42.9471 15.3077 42.9996 15.6956ZM45.1937 14.8465C44.9736 15.2658 44.8687 15.748 44.8687 16.2931C44.8687 16.8382 44.9736 17.3204 45.2042 17.7292C45.4348 18.1485 45.7493 18.463 46.1686 18.6936C46.5879 18.9242 47.0701 19.029 47.6361 19.029C48.2756 19.029 48.8102 18.8613 49.24 18.5049C49.6698 18.159 49.9318 17.7082 50.0367 17.1631H48.9045C48.8207 17.4671 48.6634 17.6977 48.4328 17.8655C48.1917 18.0332 47.8982 18.1066 47.5523 18.1066C47.112 18.1066 46.7556 17.9703 46.4935 17.6977C46.221 17.4252 46.0742 17.0583 46.0533 16.5866V16.5237H50.0996C50.1205 16.3769 50.131 16.2406 50.131 16.0939C50.1205 15.5802 50.0052 15.1295 49.7746 14.7416C49.544 14.3643 49.24 14.0603 48.8416 13.8506C48.4433 13.641 47.9926 13.5361 47.4789 13.5361C46.9653 13.5361 46.5145 13.6514 46.1162 13.8821C45.7178 14.1127 45.4138 14.4272 45.1937 14.8465ZM48.9779 15.6956H46.0952C46.1371 15.3182 46.2839 15.0247 46.5564 14.7941C46.829 14.5634 47.1435 14.4481 47.5208 14.4481C47.9192 14.4481 48.2441 14.5634 48.5062 14.7836C48.7683 15.0037 48.9255 15.3077 48.9779 15.6956ZM58.8648 17.9808H58.6447C58.4036 17.9808 58.2883 17.855 58.2883 17.6034V15.4859C58.2883 14.8569 58.0891 14.3747 57.7012 14.0393C57.3029 13.7039 56.7473 13.5361 56.0345 13.5361C55.3531 13.5361 54.808 13.6934 54.3887 13.9869C53.9694 14.2804 53.7283 14.6997 53.6759 15.2343H54.7871C54.829 15.0037 54.9548 14.815 55.1645 14.6683C55.3741 14.5215 55.6466 14.4481 55.9821 14.4481C56.349 14.4481 56.6425 14.5425 56.8521 14.7102C57.0618 14.8779 57.1666 15.119 57.1666 15.4125V15.7375H55.8144C55.0596 15.7375 54.4936 15.8947 54.1057 16.1882C53.7074 16.4817 53.5187 16.9115 53.5187 17.4566C53.5187 17.9493 53.6969 18.3372 54.0638 18.6097C54.4202 18.8927 54.9024 19.029 55.5104 19.029C56.2861 19.029 56.8731 18.725 57.2819 18.1066C57.2819 18.3896 57.3553 18.5992 57.5126 18.746C57.6593 18.8927 57.9109 18.9661 58.2673 18.9661H58.8648V17.9808ZM57.1666 16.5761V16.7648C57.1561 17.1841 57.0199 17.5195 56.7578 17.7711C56.4957 18.0227 56.1288 18.1485 55.6676 18.1485C55.3531 18.1485 55.112 18.0856 54.9338 17.9388C54.7556 17.8026 54.6718 17.6139 54.6718 17.3833C54.6718 17.1212 54.7661 16.922 54.9548 16.7857C55.1435 16.6495 55.4055 16.5761 55.762 16.5761H57.1666ZM59.4815 11.6283V18.9661H60.6136V11.6283H59.4815ZM61.7234 11.6283V18.9661H62.8555V11.6283H61.7234Z" fill="white"/>
</svg>
