<svg width="537" height="248" viewBox="0 0 537 248" fill="none" xmlns="http://www.w3.org/2000/svg">
<rect width="536.55" height="246.983" transform="translate(0 0.377808)" fill="white"/>
<path d="M43.0701 48.7417H37.1181V65.5417H43.2381C45.2061 65.5417 46.6941 65.1337 47.7501 64.3177C48.8061 63.5017 49.3341 62.3497 49.3341 60.9097C49.3341 58.7017 48.0861 57.3817 45.6381 56.9017C46.5981 56.6617 47.3421 56.2057 47.8701 55.5577C48.3741 54.9097 48.6381 54.0937 48.6381 53.0857C48.6381 51.7417 48.1341 50.6617 47.1741 49.8937C46.2141 49.1257 44.8461 48.7417 43.0701 48.7417ZM39.2061 56.0377V50.6377H43.1661C44.2461 50.6377 45.0861 50.8777 45.6621 51.3577C46.2381 51.8377 46.5501 52.4857 46.5501 53.3257C46.5501 54.1897 46.2381 54.8377 45.6621 55.3177C45.0621 55.7977 44.2221 56.0377 43.1661 56.0377H39.2061ZM39.2061 63.6457V57.9097H43.2381C44.4861 57.9097 45.4701 58.1737 46.1661 58.6777C46.8381 59.1817 47.1981 59.9017 47.1981 60.8377C47.1981 61.7257 46.8381 62.4217 46.1661 62.9017C45.4941 63.4057 44.5101 63.6457 43.2381 63.6457H39.2061ZM52.0712 56.1337C51.5912 57.0937 51.3512 58.1737 51.3512 59.4217C51.3512 60.6697 51.5912 61.7497 52.0952 62.7097C52.5992 63.6697 53.3192 64.3897 54.2312 64.9177C55.1432 65.4457 56.1992 65.6857 57.4232 65.6857C58.8152 65.6857 59.9912 65.3017 60.9512 64.5097C61.9112 63.7177 62.5112 62.6857 62.7512 61.4377H60.7592C60.5432 62.2297 60.1352 62.8537 59.5112 63.2857C58.8872 63.7177 58.1432 63.9337 57.2792 63.9337C56.1272 63.9337 55.2152 63.5737 54.5192 62.8537C53.7992 62.1337 53.4392 61.1737 53.4152 59.9737V59.8057H62.9192C62.9432 59.4217 62.9672 59.1577 62.9672 58.9657C62.9192 57.7897 62.6552 56.7577 62.1752 55.8697C61.6712 55.0057 60.9992 54.3337 60.1352 53.8537C59.2712 53.3977 58.2632 53.1577 57.1592 53.1577C56.0072 53.1577 54.9992 53.4217 54.1352 53.9497C53.2472 54.4777 52.5512 55.1977 52.0712 56.1337ZM60.9272 58.1737H53.5352C53.6312 57.2137 54.0152 56.4217 54.7352 55.7977C55.4312 55.1977 56.2472 54.8857 57.1832 54.8857C58.2152 54.8857 59.0792 55.1737 59.7512 55.7497C60.4232 56.3257 60.8312 57.1417 60.9272 58.1737ZM76.6609 63.7417H76.0609C75.5089 63.7417 75.2449 63.4537 75.2449 62.8537V57.5737C75.2449 56.1577 74.8129 55.0777 73.9489 54.3097C73.0849 53.5417 71.8849 53.1577 70.3249 53.1577C68.8369 53.1577 67.6369 53.4937 66.7249 54.1657C65.8129 54.8377 65.2849 55.7737 65.1409 56.9737H67.1089C67.2289 56.3497 67.5649 55.8697 68.1169 55.4857C68.6689 55.1017 69.3649 54.9097 70.2289 54.9097C71.1889 54.9097 71.9329 55.1497 72.4609 55.5817C72.9889 56.0377 73.2769 56.6617 73.2769 57.4537V58.2937H69.6769C68.0689 58.2937 66.8449 58.6297 66.0049 59.2777C65.1649 59.9497 64.7569 60.8857 64.7569 62.1097C64.7569 63.2137 65.1649 64.1017 65.9809 64.7257C66.7969 65.3737 67.9009 65.6857 69.2689 65.6857C71.0449 65.6857 72.4129 65.0137 73.3729 63.6457C73.3729 64.2697 73.5649 64.7497 73.9009 65.0617C74.2369 65.3977 74.7889 65.5417 75.5809 65.5417H76.6609V63.7417ZM73.2769 59.9497V60.5497C73.2769 61.6057 72.9169 62.4457 72.2449 63.0697C71.5489 63.6937 70.6129 64.0057 69.4129 64.0057C68.5969 64.0057 67.9489 63.8377 67.4689 63.4537C66.9889 63.0937 66.7489 62.6137 66.7489 61.9897C66.7489 60.6457 67.6609 59.9497 69.4849 59.9497H73.2769ZM88.7098 53.3017H86.7418V59.4217C86.7418 60.8137 86.4058 61.8937 85.7818 62.6857C85.1578 63.5017 84.2698 63.8857 83.1658 63.8857C82.1338 63.8857 81.3418 63.5737 80.7898 62.9017C80.2378 62.2297 79.9738 61.2697 79.9738 59.9977V53.3017H78.0058V60.1177C78.0058 62.0377 78.4378 63.4537 79.3258 64.3417C80.1898 65.2537 81.3658 65.6857 82.8298 65.6857C84.5098 65.6857 85.8058 65.1097 86.7418 63.9097L87.0058 65.5417H88.7098V53.3017ZM92.2555 55.1017V62.3497C92.2555 63.4537 92.4955 64.2697 92.9755 64.7737C93.4555 65.3017 94.2955 65.5417 95.4475 65.5417H97.7035V63.7417H95.5675C95.0635 63.7417 94.7035 63.6457 94.5115 63.4297C94.3195 63.2137 94.2235 62.8537 94.2235 62.3257V55.1017H97.3195V53.3017H94.2235V49.8697H92.2555V53.3017H90.0475V55.1017H92.2555ZM101 48.9337C100.76 48.6937 100.448 48.5737 100.088 48.5737C99.7035 48.5737 99.4155 48.6937 99.1755 48.9337C98.9355 49.1737 98.8155 49.4857 98.8155 49.8457C98.8155 50.2297 98.9355 50.5177 99.1755 50.7577C99.4155 50.9977 99.7035 51.1177 100.088 51.1177C100.448 51.1177 100.76 50.9977 101 50.7577C101.24 50.5177 101.36 50.2297 101.36 49.8457C101.36 49.4857 101.24 49.1737 101 48.9337ZM99.1035 53.3017V65.5417H101.072V53.3017H99.1035ZM104.584 53.3017H102.376V55.1017H104.584V65.5417H106.552V55.1017H110.008V53.3017H106.552V51.8857C106.552 51.4057 106.648 51.0697 106.864 50.8537C107.056 50.6617 107.416 50.5417 107.896 50.5417H110.032V48.7417H107.776C106.648 48.7417 105.832 49.0057 105.328 49.5337C104.824 50.0617 104.584 50.8537 104.584 51.9337V53.3017ZM121.874 53.3017H119.906V59.4217C119.906 60.8137 119.57 61.8937 118.946 62.6857C118.322 63.5017 117.434 63.8857 116.33 63.8857C115.298 63.8857 114.506 63.5737 113.954 62.9017C113.402 62.2297 113.138 61.2697 113.138 59.9977V53.3017H111.17V60.1177C111.17 62.0377 111.602 63.4537 112.49 64.3417C113.354 65.2537 114.53 65.6857 115.994 65.6857C117.674 65.6857 118.97 65.1097 119.906 63.9097L120.17 65.5417H121.874V53.3017ZM124.557 48.7417V65.5417H126.525V48.7417H124.557ZM135.502 48.7417V65.5417H137.47V48.7417H135.502ZM142.062 48.9337C141.822 48.6937 141.51 48.5737 141.15 48.5737C140.766 48.5737 140.478 48.6937 140.238 48.9337C139.998 49.1737 139.878 49.4857 139.878 49.8457C139.878 50.2297 139.998 50.5177 140.238 50.7577C140.478 50.9977 140.766 51.1177 141.15 51.1177C141.51 51.1177 141.822 50.9977 142.062 50.7577C142.302 50.5177 142.422 50.2297 142.422 49.8457C142.422 49.4857 142.302 49.1737 142.062 48.9337ZM140.166 53.3017V65.5417H142.134V53.3017H140.166ZM143.606 53.3017L148.19 65.5417H150.566L155.15 53.3017H153.086L149.414 63.3097L145.718 53.3017H143.606ZM158.515 48.9337C158.275 48.6937 157.963 48.5737 157.603 48.5737C157.219 48.5737 156.931 48.6937 156.691 48.9337C156.451 49.1737 156.331 49.4857 156.331 49.8457C156.331 50.2297 156.451 50.5177 156.691 50.7577C156.931 50.9977 157.219 51.1177 157.603 51.1177C157.963 51.1177 158.275 50.9977 158.515 50.7577C158.755 50.5177 158.875 50.2297 158.875 49.8457C158.875 49.4857 158.755 49.1737 158.515 48.9337ZM156.619 53.3017V65.5417H158.587V53.3017H156.619ZM170.859 54.5017C169.947 53.6137 168.771 53.1577 167.283 53.1577C165.507 53.1577 164.163 53.7577 163.251 54.9577L162.987 53.3017H161.283V65.5417H163.251V59.4217C163.251 58.0537 163.563 56.9737 164.235 56.1577C164.883 55.3657 165.795 54.9577 166.947 54.9577C168.003 54.9577 168.819 55.2937 169.395 55.9657C169.971 56.6377 170.259 57.5977 170.259 58.8457V65.5417H172.227V58.7257C172.227 56.8057 171.771 55.4137 170.859 54.5017ZM186.352 53.3017H184.648L184.384 55.4137C183.976 54.6937 183.424 54.1417 182.728 53.7577C182.008 53.3737 181.168 53.1577 180.184 53.1577C179.056 53.1577 178.048 53.4217 177.16 53.9497C176.248 54.4777 175.552 55.2217 175.048 56.1577C174.544 57.1177 174.304 58.1977 174.304 59.4217C174.304 60.7177 174.544 61.8457 175.048 62.7817C175.552 63.7417 176.248 64.4617 177.136 64.9417C178.024 65.4457 179.032 65.6857 180.184 65.6857C182.104 65.6857 183.496 64.9417 184.384 63.4297V64.8697C184.384 67.4617 183.064 68.7337 180.424 68.7337C179.392 68.7337 178.552 68.5417 177.904 68.1097C177.232 67.7017 176.824 67.1017 176.68 66.3337H174.664C174.808 67.6777 175.384 68.6857 176.392 69.4057C177.4 70.1257 178.696 70.4857 180.28 70.4857C184.312 70.4857 186.352 68.6377 186.352 64.9417V53.3017ZM182.464 63.3817C181.84 63.7657 181.144 63.9337 180.376 63.9337C179.152 63.9337 178.168 63.5257 177.424 62.6857C176.68 61.8457 176.32 60.7657 176.32 59.4217C176.32 58.1017 176.68 57.0217 177.424 56.1817C178.168 55.3417 179.152 54.9097 180.376 54.9097C181.144 54.9097 181.84 55.1017 182.464 55.4857C183.088 55.8697 183.568 56.4217 183.904 57.1177C184.24 57.8137 184.408 58.6057 184.408 59.4697C184.408 60.3337 184.24 61.1257 183.904 61.7977C183.568 62.4697 183.088 62.9977 182.464 63.3817ZM206.93 53.3017H205.226L204.962 55.4137C204.554 54.6937 204.002 54.1417 203.306 53.7577C202.586 53.3737 201.746 53.1577 200.762 53.1577C199.634 53.1577 198.626 53.4217 197.738 53.9497C196.826 54.4777 196.13 55.2217 195.626 56.1577C195.122 57.1177 194.882 58.1977 194.882 59.4217C194.882 60.7177 195.122 61.8457 195.626 62.7817C196.13 63.7417 196.826 64.4617 197.714 64.9417C198.602 65.4457 199.61 65.6857 200.762 65.6857C202.682 65.6857 204.074 64.9417 204.962 63.4297V64.8697C204.962 67.4617 203.642 68.7337 201.002 68.7337C199.97 68.7337 199.13 68.5417 198.482 68.1097C197.81 67.7017 197.402 67.1017 197.258 66.3337H195.242C195.386 67.6777 195.962 68.6857 196.97 69.4057C197.978 70.1257 199.274 70.4857 200.858 70.4857C204.89 70.4857 206.93 68.6377 206.93 64.9417V53.3017ZM203.042 63.3817C202.418 63.7657 201.722 63.9337 200.954 63.9337C199.73 63.9337 198.746 63.5257 198.002 62.6857C197.258 61.8457 196.898 60.7657 196.898 59.4217C196.898 58.1017 197.258 57.0217 198.002 56.1817C198.746 55.3417 199.73 54.9097 200.954 54.9097C201.722 54.9097 202.418 55.1017 203.042 55.4857C203.666 55.8697 204.146 56.4217 204.482 57.1177C204.818 57.8137 204.986 58.6057 204.986 59.4697C204.986 60.3337 204.818 61.1257 204.482 61.7977C204.146 62.4697 203.666 62.9977 203.042 63.3817ZM215.827 53.3017H215.275C214.267 53.3017 213.499 53.4697 212.947 53.8057C212.371 54.1417 211.915 54.5977 211.579 55.1497L211.315 53.3017H209.611V65.5417H211.579V59.3017C211.579 58.1497 211.819 57.1897 212.323 56.3977C212.827 55.6297 213.667 55.2217 214.843 55.2217H215.827V53.3017ZM217.212 56.1337C216.732 57.0937 216.492 58.1737 216.492 59.4217C216.492 60.6697 216.732 61.7497 217.236 62.7097C217.74 63.6697 218.46 64.3897 219.372 64.9177C220.284 65.4457 221.34 65.6857 222.564 65.6857C223.956 65.6857 225.132 65.3017 226.092 64.5097C227.052 63.7177 227.652 62.6857 227.892 61.4377L225.9 61.4377C225.684 62.2297 225.276 62.8537 224.652 63.2857C224.028 63.7177 223.284 63.9337 222.42 63.9337C221.268 63.9337 220.356 63.5737 219.66 62.8537C218.94 62.1337 218.58 61.1737 218.556 59.9737V59.8057L228.06 59.8057C228.084 59.4217 228.108 59.1577 228.108 58.9657C228.06 57.7897 227.796 56.7577 227.316 55.8697C226.812 55.0057 226.14 54.3337 225.276 53.8537C224.412 53.3977 223.404 53.1577 222.3 53.1577C221.148 53.1577 220.14 53.4217 219.276 53.9497C218.388 54.4777 217.692 55.1977 217.212 56.1337ZM226.068 58.1737H218.676C218.772 57.2137 219.156 56.4217 219.876 55.7977C220.572 55.1977 221.388 54.8857 222.324 54.8857C223.356 54.8857 224.22 55.1737 224.892 55.7497C225.564 56.3257 225.972 57.1417 226.068 58.1737ZM230.642 56.1337C230.162 57.0937 229.922 58.1737 229.922 59.4217C229.922 60.6697 230.162 61.7497 230.666 62.7097C231.17 63.6697 231.89 64.3897 232.802 64.9177C233.714 65.4457 234.77 65.6857 235.994 65.6857C237.386 65.6857 238.562 65.3017 239.522 64.5097C240.482 63.7177 241.082 62.6857 241.322 61.4377H239.33C239.114 62.2297 238.706 62.8537 238.082 63.2857C237.458 63.7177 236.714 63.9337 235.85 63.9337C234.698 63.9337 233.786 63.5737 233.09 62.8537C232.37 62.1337 232.01 61.1737 231.986 59.9737V59.8057H241.49C241.514 59.4217 241.538 59.1577 241.538 58.9657C241.49 57.7897 241.226 56.7577 240.746 55.8697C240.242 55.0057 239.57 54.3337 238.706 53.8537C237.842 53.3977 236.834 53.1577 235.73 53.1577C234.578 53.1577 233.57 53.4217 232.706 53.9497C231.818 54.4777 231.122 55.1977 230.642 56.1337ZM239.498 58.1737H232.106C232.202 57.2137 232.586 56.4217 233.306 55.7977C234.002 55.1977 234.818 54.8857 235.754 54.8857C236.786 54.8857 237.65 55.1737 238.322 55.7497C238.994 56.3257 239.402 57.1417 239.498 58.1737ZM253.359 54.5017C252.447 53.6137 251.271 53.1577 249.783 53.1577C248.007 53.1577 246.663 53.7577 245.751 54.9577L245.487 53.3017H243.783V65.5417H245.751V59.4217C245.751 58.0537 246.063 56.9737 246.735 56.1577C247.383 55.3657 248.295 54.9577 249.447 54.9577C250.503 54.9577 251.319 55.2937 251.895 55.9657C252.471 56.6377 252.759 57.5977 252.759 58.8457V65.5417H254.727V58.7257C254.727 56.8057 254.271 55.4137 253.359 54.5017ZM257.524 56.1337C257.044 57.0937 256.804 58.1737 256.804 59.4217C256.804 60.6697 257.044 61.7497 257.548 62.7097C258.052 63.6697 258.772 64.3897 259.684 64.9177C260.596 65.4457 261.652 65.6857 262.876 65.6857C264.268 65.6857 265.444 65.3017 266.404 64.5097C267.364 63.7177 267.964 62.6857 268.204 61.4377H266.212C265.996 62.2297 265.588 62.8537 264.964 63.2857C264.34 63.7177 263.596 63.9337 262.732 63.9337C261.58 63.9337 260.668 63.5737 259.972 62.8537C259.252 62.1337 258.892 61.1737 258.868 59.9737V59.8057H268.372C268.396 59.4217 268.42 59.1577 268.42 58.9657C268.372 57.7897 268.108 56.7577 267.628 55.8697C267.124 55.0057 266.452 54.3337 265.588 53.8537C264.724 53.3977 263.716 53.1577 262.612 53.1577C261.46 53.1577 260.452 53.4217 259.588 53.9497C258.7 54.4777 258.004 55.1977 257.524 56.1337ZM266.38 58.1737H258.988C259.084 57.2137 259.468 56.4217 260.188 55.7977C260.884 55.1977 261.7 54.8857 262.636 54.8857C263.668 54.8857 264.532 55.1737 265.204 55.7497C265.876 56.3257 266.284 57.1417 266.38 58.1737ZM276.882 53.3017H276.33C275.322 53.3017 274.554 53.4697 274.002 53.8057C273.426 54.1417 272.97 54.5977 272.634 55.1497L272.37 53.3017H270.666V65.5417H272.634V59.3017C272.634 58.1497 272.874 57.1897 273.378 56.3977C273.882 55.6297 274.722 55.2217 275.898 55.2217H276.882V53.3017ZM279.663 53.3017H277.575L282.375 65.6377L281.751 67.1017C281.559 67.5337 281.415 67.8457 281.295 68.0377C281.175 68.2297 281.031 68.3497 280.839 68.4217C280.647 68.5177 280.359 68.5417 279.975 68.5417H278.223V70.3417H280.575C281.127 70.3417 281.583 70.2697 281.919 70.0777C282.255 69.9097 282.519 69.6457 282.759 69.2617C282.975 68.9017 283.239 68.3497 283.527 67.6057L289.167 53.3017H287.079L283.431 63.2857L279.663 53.3017ZM297.732 53.3017H295.524V55.1017H297.732V65.5417H299.7V55.1017H303.156V53.3017H299.7V51.8857C299.7 51.4057 299.796 51.0697 300.012 50.8537C300.204 50.6617 300.564 50.5417 301.044 50.5417H303.18V48.7417H300.924C299.796 48.7417 298.98 49.0057 298.476 49.5337C297.972 50.0617 297.732 50.8537 297.732 51.9337V53.3017ZM306.396 64.8937C307.308 65.4217 308.364 65.6857 309.564 65.6857C310.74 65.6857 311.796 65.4217 312.708 64.8937C313.62 64.3657 314.34 63.6457 314.868 62.6857C315.372 61.7497 315.636 60.6697 315.636 59.4217C315.636 58.1977 315.372 57.1177 314.868 56.1577C314.34 55.2217 313.62 54.4777 312.708 53.9497C311.796 53.4217 310.74 53.1577 309.564 53.1577C308.364 53.1577 307.308 53.4217 306.396 53.9497C305.484 54.4777 304.764 55.2217 304.26 56.1577C303.732 57.1177 303.492 58.1977 303.492 59.4217C303.492 60.6697 303.732 61.7497 304.26 62.6857C304.764 63.6457 305.484 64.3657 306.396 64.8937ZM311.676 63.3577C311.052 63.7417 310.356 63.9337 309.564 63.9337C308.748 63.9337 308.052 63.7417 307.428 63.3577C306.804 62.9737 306.348 62.4457 306.012 61.7497C305.676 61.0777 305.508 60.2857 305.508 59.4217C305.508 58.5577 305.676 57.7897 306.012 57.0937C306.348 56.4217 306.804 55.8697 307.428 55.4857C308.052 55.1017 308.748 54.9097 309.564 54.9097C310.356 54.9097 311.052 55.1017 311.676 55.4857C312.3 55.8697 312.78 56.4217 313.116 57.0937C313.452 57.7897 313.62 58.5577 313.62 59.4217C313.62 60.2857 313.452 61.0777 313.116 61.7497C312.78 62.4457 312.3 62.9737 311.676 63.3577ZM324.109 53.3017H323.557C322.549 53.3017 321.781 53.4697 321.229 53.8057C320.653 54.1417 320.197 54.5977 319.861 55.1497L319.597 53.3017H317.893V65.5417H319.861V59.3017C319.861 58.1497 320.101 57.1897 320.605 56.3977C321.109 55.6297 321.949 55.2217 323.125 55.2217H324.109V53.3017ZM46.4301 85.5017C45.5181 84.6137 44.3181 84.1577 42.8301 84.1577C41.8701 84.1577 41.0541 84.3737 40.3821 84.7577C39.7101 85.1657 39.1821 85.6937 38.7981 86.3177V79.7417H36.8301V96.5417H38.7981V90.4217C38.7981 89.0537 39.1101 87.9737 39.7821 87.1577C40.4541 86.3657 41.3421 85.9577 42.4941 85.9577C43.5501 85.9577 44.3901 86.2937 44.9661 86.9657C45.5421 87.6377 45.8301 88.5977 45.8301 89.8457V96.5417H47.7981V89.7257C47.7981 87.8057 47.3421 86.4137 46.4301 85.5017ZM52.7786 95.8937C53.6906 96.4217 54.7466 96.6857 55.9466 96.6857C57.1226 96.6857 58.1786 96.4217 59.0906 95.8937C60.0026 95.3657 60.7226 94.6457 61.2506 93.6857C61.7546 92.7497 62.0186 91.6697 62.0186 90.4217C62.0186 89.1977 61.7546 88.1177 61.2506 87.1577C60.7226 86.2217 60.0026 85.4777 59.0906 84.9497C58.1786 84.4217 57.1226 84.1577 55.9466 84.1577C54.7466 84.1577 53.6906 84.4217 52.7786 84.9497C51.8666 85.4777 51.1466 86.2217 50.6426 87.1577C50.1146 88.1177 49.8746 89.1977 49.8746 90.4217C49.8746 91.6697 50.1146 92.7497 50.6426 93.6857C51.1466 94.6457 51.8666 95.3657 52.7786 95.8937ZM58.0586 94.3577C57.4346 94.7417 56.7386 94.9337 55.9466 94.9337C55.1306 94.9337 54.4346 94.7417 53.8106 94.3577C53.1866 93.9737 52.7306 93.4457 52.3946 92.7497C52.0586 92.0777 51.8906 91.2857 51.8906 90.4217C51.8906 89.5577 52.0586 88.7897 52.3946 88.0937C52.7306 87.4217 53.1866 86.8697 53.8106 86.4857C54.4346 86.1017 55.1306 85.9097 55.9466 85.9097C56.7386 85.9097 57.4346 86.1017 58.0586 86.4857C58.6826 86.8697 59.1626 87.4217 59.4986 88.0937C59.8346 88.7897 60.0026 89.5577 60.0026 90.4217C60.0026 91.2857 59.8346 92.0777 59.4986 92.7497C59.1626 93.4457 58.6826 93.9737 58.0586 94.3577ZM81.2674 85.4537C80.4034 84.5897 79.2994 84.1577 77.9314 84.1577C75.9634 84.1577 74.5474 84.9497 73.6834 86.4857C73.3474 85.7177 72.8194 85.1417 72.1474 84.7577C71.4754 84.3737 70.6834 84.1577 69.8194 84.1577C68.3074 84.1577 67.1074 84.7817 66.2434 85.9817L65.9794 84.3017H64.2754V96.5417H66.2434V90.0857C66.2434 88.8617 66.5314 87.8777 67.1074 87.1097C67.6834 86.3417 68.4754 85.9577 69.4834 85.9577C70.4194 85.9577 71.1394 86.2697 71.6674 86.8937C72.1714 87.5177 72.4354 88.4297 72.4354 89.6057V96.5417H74.4034V89.9897C74.4034 88.7417 74.6914 87.7577 75.2674 87.0377C75.8434 86.3177 76.6594 85.9577 77.6914 85.9577C78.6034 85.9577 79.3234 86.2697 79.8274 86.8937C80.3314 87.5177 80.5954 88.4297 80.5954 89.6057V96.5417H82.5634V89.4857C82.5634 87.6617 82.1314 86.3177 81.2674 85.4537ZM85.3759 87.1337C84.8959 88.0937 84.6559 89.1737 84.6559 90.4217C84.6559 91.6697 84.8959 92.7497 85.3999 93.7097C85.9039 94.6697 86.6239 95.3897 87.5359 95.9177C88.4479 96.4457 89.5039 96.6857 90.7279 96.6857C92.1199 96.6857 93.2959 96.3017 94.2559 95.5097C95.2159 94.7177 95.8159 93.6857 96.0559 92.4377H94.0639C93.8479 93.2297 93.4399 93.8537 92.8159 94.2857C92.1919 94.7177 91.4479 94.9337 90.5839 94.9337C89.4319 94.9337 88.5199 94.5737 87.8239 93.8537C87.1039 93.1337 86.7439 92.1737 86.7199 90.9737V90.8057H96.2239C96.2479 90.4217 96.2719 90.1577 96.2719 89.9657C96.2239 88.7897 95.9599 87.7577 95.4799 86.8697C94.9759 86.0057 94.3039 85.3337 93.4399 84.8537C92.5759 84.3977 91.5679 84.1577 90.4639 84.1577C89.3119 84.1577 88.3039 84.4217 87.4399 84.9497C86.5519 85.4777 85.8559 86.1977 85.3759 87.1337ZM94.2319 89.1737H86.8399C86.9359 88.2137 87.3199 87.4217 88.0399 86.7977C88.7359 86.1977 89.5519 85.8857 90.4879 85.8857C91.5199 85.8857 92.3839 86.1737 93.0559 86.7497C93.7279 87.3257 94.1359 88.1417 94.2319 89.1737ZM100.007 92.5097H98.0387C98.0387 93.8297 98.5427 94.8617 99.5027 95.5817C100.463 96.3257 101.759 96.6857 103.367 96.6857C104.255 96.6857 105.071 96.5417 105.815 96.2297C106.535 95.9417 107.135 95.5097 107.567 94.9337C107.999 94.3817 108.215 93.7337 108.215 92.9897C108.215 92.1497 107.999 91.4777 107.567 90.9737C107.135 90.4937 106.583 90.1337 105.887 89.8937C105.191 89.6777 104.303 89.5097 103.247 89.3657C102.479 89.2697 101.903 89.1977 101.519 89.1017C101.135 89.0297 100.847 88.8857 100.607 88.6457C100.367 88.4297 100.247 88.1177 100.247 87.6857C100.247 87.1337 100.487 86.6777 101.015 86.3417C101.519 86.0057 102.191 85.8137 103.031 85.8137C103.847 85.8137 104.519 86.0297 105.071 86.4377C105.599 86.8697 105.911 87.3977 106.007 88.0217H107.975C107.879 86.7737 107.375 85.8137 106.463 85.1417C105.551 84.4697 104.399 84.1337 102.959 84.1337C102.071 84.1337 101.279 84.3017 100.583 84.6137C99.8627 84.9257 99.3107 85.3577 98.9027 85.9097C98.4947 86.4857 98.3027 87.1097 98.3027 87.8297C98.3027 88.6457 98.4947 89.2697 98.9267 89.7257C99.3347 90.1817 99.8867 90.5177 100.559 90.7097C101.231 90.9257 102.095 91.0937 103.151 91.2137C103.895 91.3097 104.471 91.4057 104.879 91.5017C105.287 91.5977 105.623 91.7897 105.887 92.0297C106.127 92.2937 106.271 92.6537 106.271 93.1337C106.271 93.7097 105.983 94.1657 105.455 94.5017C104.927 94.8377 104.231 95.0057 103.367 95.0057C102.383 95.0057 101.591 94.7897 100.967 94.3097C100.343 93.8537 100.031 93.2537 100.007 92.5097ZM128.177 94.7417H127.577C127.025 94.7417 126.761 94.4537 126.761 93.8537V88.5737C126.761 87.1577 126.329 86.0777 125.465 85.3097C124.601 84.5417 123.401 84.1577 121.841 84.1577C120.353 84.1577 119.153 84.4937 118.241 85.1657C117.329 85.8377 116.801 86.7737 116.657 87.9737H118.625C118.745 87.3497 119.081 86.8697 119.633 86.4857C120.185 86.1017 120.881 85.9097 121.745 85.9097C122.705 85.9097 123.449 86.1497 123.977 86.5817C124.505 87.0377 124.793 87.6617 124.793 88.4537V89.2937H121.193C119.585 89.2937 118.361 89.6297 117.521 90.2777C116.681 90.9497 116.273 91.8857 116.273 93.1097C116.273 94.2137 116.681 95.1017 117.497 95.7257C118.313 96.3737 119.417 96.6857 120.785 96.6857C122.561 96.6857 123.929 96.0137 124.889 94.6457C124.889 95.2697 125.081 95.7497 125.417 96.0617C125.753 96.3977 126.305 96.5417 127.097 96.5417H128.177V94.7417ZM124.793 90.9497V91.5497C124.793 92.6057 124.433 93.4457 123.761 94.0697C123.065 94.6937 122.129 95.0057 120.929 95.0057C120.113 95.0057 119.465 94.8377 118.985 94.4537C118.505 94.0937 118.265 93.6137 118.265 92.9897C118.265 91.6457 119.177 90.9497 121.001 90.9497H124.793ZM139.265 85.5017C138.353 84.6137 137.177 84.1577 135.689 84.1577C133.913 84.1577 132.569 84.7577 131.657 85.9577L131.393 84.3017H129.689V96.5417H131.657V90.4217C131.657 89.0537 131.969 87.9737 132.641 87.1577C133.289 86.3657 134.201 85.9577 135.353 85.9577C136.409 85.9577 137.225 86.2937 137.801 86.9657C138.377 87.6377 138.665 88.5977 138.665 89.8457V96.5417H140.633V89.7257C140.633 87.8057 140.177 86.4137 139.265 85.5017ZM154.759 79.7417H152.791V86.1737C152.383 85.5497 151.831 85.0697 151.135 84.7097C150.415 84.3497 149.575 84.1577 148.591 84.1577C147.463 84.1577 146.455 84.4217 145.567 84.9497C144.655 85.4777 143.959 86.2217 143.455 87.1577C142.951 88.1177 142.711 89.1977 142.711 90.4217C142.711 91.7177 142.951 92.8457 143.455 93.7817C143.959 94.7417 144.655 95.4617 145.543 95.9417C146.431 96.4457 147.439 96.6857 148.591 96.6857C150.367 96.6857 151.759 95.9897 152.791 94.5737L153.055 96.5417H154.759V79.7417ZM150.871 94.3817C150.247 94.7657 149.551 94.9337 148.783 94.9337C147.559 94.9337 146.575 94.5257 145.831 93.6857C145.087 92.8457 144.727 91.7657 144.727 90.4217C144.727 89.1017 145.087 88.0217 145.831 87.1817C146.575 86.3417 147.559 85.9097 148.783 85.9097C149.551 85.9097 150.247 86.1017 150.871 86.4857C151.495 86.8697 151.975 87.4217 152.311 88.1177C152.647 88.8137 152.815 89.6057 152.815 90.4697C152.815 91.3337 152.647 92.1257 152.311 92.7977C151.975 93.4697 151.495 93.9977 150.871 94.3817ZM166.193 95.8937C167.105 96.4217 168.161 96.6857 169.361 96.6857C170.537 96.6857 171.593 96.4217 172.505 95.8937C173.417 95.3657 174.137 94.6457 174.665 93.6857C175.169 92.7497 175.433 91.6697 175.433 90.4217C175.433 89.1977 175.169 88.1177 174.665 87.1577C174.137 86.2217 173.417 85.4777 172.505 84.9497C171.593 84.4217 170.537 84.1577 169.361 84.1577C168.161 84.1577 167.105 84.4217 166.193 84.9497C165.281 85.4777 164.561 86.2217 164.057 87.1577C163.529 88.1177 163.289 89.1977 163.289 90.4217C163.289 91.6697 163.529 92.7497 164.057 93.6857C164.561 94.6457 165.281 95.3657 166.193 95.8937ZM171.473 94.3577C170.849 94.7417 170.153 94.9337 169.361 94.9337C168.545 94.9337 167.849 94.7417 167.225 94.3577C166.601 93.9737 166.145 93.4457 165.809 92.7497C165.473 92.0777 165.305 91.2857 165.305 90.4217C165.305 89.5577 165.473 88.7897 165.809 88.0937C166.145 87.4217 166.601 86.8697 167.225 86.4857C167.849 86.1017 168.545 85.9097 169.361 85.9097C170.153 85.9097 170.849 86.1017 171.473 86.4857C172.097 86.8697 172.577 87.4217 172.913 88.0937C173.249 88.7897 173.417 89.5577 173.417 90.4217C173.417 91.2857 173.249 92.0777 172.913 92.7497C172.577 93.4457 172.097 93.9737 171.473 94.3577ZM178.365 84.3017H176.157V86.1017H178.365V96.5417H180.333V86.1017H183.789V84.3017H180.333V82.8857C180.333 82.4057 180.429 82.0697 180.645 81.8537C180.837 81.6617 181.197 81.5417 181.677 81.5417H183.813V79.7417H181.557C180.429 79.7417 179.613 80.0057 179.109 80.5337C178.605 81.0617 178.365 81.8537 178.365 82.9337V84.3017ZM185.863 80.5337C185.359 81.0617 185.119 81.8537 185.119 82.9337V96.5417H187.087V86.1017H190.543V84.3017H187.087V82.8857C187.087 82.4057 187.183 82.0697 187.399 81.8537C187.591 81.6617 187.951 81.5417 188.431 81.5417H190.567V79.7417H188.311C187.183 79.7417 186.367 80.0057 185.863 80.5337ZM193.765 79.9337C193.525 79.6937 193.213 79.5737 192.853 79.5737C192.469 79.5737 192.181 79.6937 191.941 79.9337C191.701 80.1737 191.581 80.4857 191.581 80.8457C191.581 81.2297 191.701 81.5177 191.941 81.7577C192.181 81.9977 192.469 82.1177 192.853 82.1177C193.213 82.1177 193.525 81.9977 193.765 81.7577C194.005 81.5177 194.125 81.2297 194.125 80.8457C194.125 80.4857 194.005 80.1737 193.765 79.9337ZM191.869 84.3017V96.5417H193.837V84.3017H191.869ZM205.653 95.5337C206.589 94.7657 207.189 93.6857 207.453 92.3177H205.485C205.293 93.1337 204.909 93.7817 204.309 94.2377C203.685 94.7177 202.941 94.9337 202.053 94.9337C200.877 94.9337 199.917 94.5257 199.197 93.6857C198.477 92.8457 198.117 91.7417 198.117 90.3977C198.117 89.0777 198.477 87.9977 199.197 87.1577C199.917 86.3417 200.877 85.9097 202.053 85.9097C202.917 85.9097 203.637 86.1497 204.261 86.6057C204.861 87.0857 205.269 87.7097 205.461 88.4777H207.453C207.213 87.1337 206.613 86.0777 205.677 85.3097C204.741 84.5417 203.565 84.1577 202.125 84.1577C200.925 84.1577 199.893 84.4217 198.981 84.9497C198.069 85.4777 197.349 86.1977 196.845 87.1337C196.341 88.0937 196.101 89.1737 196.101 90.3977C196.101 91.6457 196.341 92.7257 196.845 93.6857C197.325 94.6457 198.021 95.3657 198.933 95.8937C199.821 96.4217 200.853 96.6857 202.053 96.6857C203.493 96.6857 204.693 96.3017 205.653 95.5337ZM209.759 87.1337C209.279 88.0937 209.039 89.1737 209.039 90.4217C209.039 91.6697 209.279 92.7497 209.783 93.7097C210.287 94.6697 211.007 95.3897 211.919 95.9177C212.831 96.4457 213.887 96.6857 215.111 96.6857C216.503 96.6857 217.679 96.3017 218.639 95.5097C219.599 94.7177 220.199 93.6857 220.439 92.4377H218.447C218.231 93.2297 217.823 93.8537 217.199 94.2857C216.575 94.7177 215.831 94.9337 214.967 94.9337C213.815 94.9337 212.903 94.5737 212.207 93.8537C211.487 93.1337 211.127 92.1737 211.103 90.9737V90.8057H220.607C220.631 90.4217 220.655 90.1577 220.655 89.9657C220.607 88.7897 220.343 87.7577 219.863 86.8697C219.359 86.0057 218.687 85.3337 217.823 84.8537C216.959 84.3977 215.951 84.1577 214.847 84.1577C213.695 84.1577 212.687 84.4217 211.823 84.9497C210.935 85.4777 210.239 86.1977 209.759 87.1337ZM218.615 89.1737H211.223C211.319 88.2137 211.703 87.4217 212.423 86.7977C213.119 86.1977 213.935 85.8857 214.871 85.8857C215.903 85.8857 216.767 86.1737 217.439 86.7497C218.111 87.3257 218.519 88.1417 218.615 89.1737ZM224.39 92.5097H222.422C222.422 93.8297 222.926 94.8617 223.886 95.5817C224.846 96.3257 226.142 96.6857 227.75 96.6857C228.638 96.6857 229.454 96.5417 230.198 96.2297C230.918 95.9417 231.518 95.5097 231.95 94.9337C232.382 94.3817 232.598 93.7337 232.598 92.9897C232.598 92.1497 232.382 91.4777 231.95 90.9737C231.518 90.4937 230.966 90.1337 230.27 89.8937C229.574 89.6777 228.686 89.5097 227.63 89.3657C226.862 89.2697 226.286 89.1977 225.902 89.1017C225.518 89.0297 225.23 88.8857 224.99 88.6457C224.75 88.4297 224.63 88.1177 224.63 87.6857C224.63 87.1337 224.87 86.6777 225.398 86.3417C225.902 86.0057 226.574 85.8137 227.414 85.8137C228.23 85.8137 228.902 86.0297 229.454 86.4377C229.982 86.8697 230.294 87.3977 230.39 88.0217H232.358C232.262 86.7737 231.758 85.8137 230.846 85.1417C229.934 84.4697 228.782 84.1337 227.342 84.1337C226.454 84.1337 225.662 84.3017 224.966 84.6137C224.246 84.9257 223.694 85.3577 223.286 85.9097C222.878 86.4857 222.686 87.1097 222.686 87.8297C222.686 88.6457 222.878 89.2697 223.31 89.7257C223.718 90.1817 224.27 90.5177 224.942 90.7097C225.614 90.9257 226.478 91.0937 227.534 91.2137C228.278 91.3097 228.854 91.4057 229.262 91.5017C229.67 91.5977 230.006 91.7897 230.27 92.0297C230.51 92.2937 230.654 92.6537 230.654 93.1337C230.654 93.7097 230.366 94.1657 229.838 94.5017C229.31 94.8377 228.614 95.0057 227.75 95.0057C226.766 95.0057 225.974 94.7897 225.35 94.3097C224.726 93.8537 224.414 93.2537 224.39 92.5097Z" fill="black"/>
<path opacity="0.5" d="M43.9687 182.375H36.8913V200.26H44.3519C46.5748 200.26 48.3122 199.825 49.5386 198.906C50.765 197.986 51.4037 196.759 51.4037 195.175C51.4037 193.949 51.0205 193.004 50.2795 192.339C49.5386 191.675 48.491 191.241 47.1369 191.087C48.2866 190.934 49.1809 190.5 49.8452 189.835C50.4839 189.171 50.8161 188.251 50.8161 187.102C50.8161 185.594 50.2029 184.419 49.002 183.601C47.8012 182.784 46.1149 182.375 43.9687 182.375ZM41.5925 189.503V185.926H44.0453C44.6841 185.926 45.1951 186.105 45.5528 186.412C45.9105 186.744 46.1149 187.178 46.1149 187.715C46.1149 188.277 45.9105 188.711 45.5528 189.018C45.1951 189.35 44.6841 189.503 44.0453 189.503H41.5925ZM41.5925 196.683V193.004H44.403C45.0673 193.004 45.6039 193.182 45.9871 193.489C46.3704 193.821 46.5748 194.281 46.5748 194.843C46.5748 195.431 46.3704 195.891 45.9871 196.197C45.6039 196.529 45.0673 196.683 44.403 196.683H41.5925ZM53.4529 182.375V200.26H57.8731V182.375H53.4529ZM63.0008 199.595C64.0739 200.158 65.3514 200.413 66.8078 200.413C68.2386 200.413 69.5161 200.158 70.5892 199.595C71.6623 199.033 72.5054 198.241 73.0931 197.219C73.6807 196.197 73.9873 195.022 73.9873 193.668C73.9873 192.339 73.6807 191.138 73.0931 190.116C72.5054 189.094 71.6623 188.328 70.5892 187.766C69.5161 187.204 68.2386 186.923 66.8078 186.923C65.3514 186.923 64.0739 187.204 63.0008 187.766C61.9277 188.328 61.0846 189.094 60.4969 190.116C59.9093 191.138 59.6282 192.339 59.6282 193.668C59.6282 195.022 59.9093 196.197 60.4969 197.219C61.0846 198.241 61.9277 199.033 63.0008 199.595ZM68.7751 196.018C68.2897 196.606 67.6254 196.887 66.8078 196.887C65.9646 196.887 65.3003 196.606 64.8404 196.018C64.355 195.431 64.125 194.639 64.125 193.668C64.125 192.697 64.355 191.93 64.8404 191.343C65.3003 190.755 65.9646 190.449 66.8078 190.449C67.6254 190.449 68.2897 190.755 68.7751 191.343C69.235 191.93 69.4905 192.697 69.4905 193.668C69.4905 194.639 69.235 195.431 68.7751 196.018ZM78.5953 199.595C79.6684 200.158 80.9459 200.413 82.4023 200.413C83.8331 200.413 85.1106 200.158 86.1837 199.595C87.2568 199.033 88.0999 198.241 88.6876 197.219C89.2752 196.197 89.5818 195.022 89.5818 193.668C89.5818 192.339 89.2752 191.138 88.6876 190.116C88.0999 189.094 87.2568 188.328 86.1837 187.766C85.1106 187.204 83.8331 186.923 82.4023 186.923C80.9459 186.923 79.6684 187.204 78.5953 187.766C77.5222 188.328 76.6791 189.094 76.0914 190.116C75.5038 191.138 75.2227 192.339 75.2227 193.668C75.2227 195.022 75.5038 196.197 76.0914 197.219C76.6791 198.241 77.5222 199.033 78.5953 199.595ZM84.3696 196.018C83.8842 196.606 83.2199 196.887 82.4023 196.887C81.5591 196.887 80.8948 196.606 80.4349 196.018C79.9495 195.431 79.7195 194.639 79.7195 193.668C79.7195 192.697 79.9495 191.93 80.4349 191.343C80.8948 190.755 81.5591 190.449 82.4023 190.449C83.2199 190.449 83.8842 190.755 84.3696 191.343C84.8295 191.93 85.085 192.697 85.085 193.668C85.085 194.639 84.8295 195.431 84.3696 196.018ZM111.206 188.353C110.337 187.408 109.213 186.923 107.834 186.923C106.863 186.923 105.994 187.102 105.227 187.459C104.461 187.817 103.822 188.353 103.337 189.018C102.596 187.638 101.318 186.923 99.5042 186.923C98.5844 186.948 97.7924 187.102 97.1792 187.383C96.566 187.689 96.0294 188.098 95.5695 188.66L95.2374 187.076H91.3538V200.285H95.7739V192.952C95.7739 192.16 95.9528 191.547 96.336 191.113C96.7193 190.679 97.2303 190.449 97.8946 190.449C98.5589 190.449 99.0188 190.653 99.2998 191.062C99.5809 191.471 99.7342 192.109 99.7342 192.952V200.285H104.154V192.952C104.154 192.16 104.333 191.547 104.742 191.113C105.125 190.679 105.636 190.449 106.275 190.449C106.914 190.449 107.374 190.679 107.68 191.087C107.961 191.496 108.115 192.135 108.115 192.952V200.285H112.535V193.208C112.535 190.908 112.075 189.299 111.206 188.353ZM125.774 187.74C124.854 187.204 123.832 186.923 122.708 186.923C121.175 186.923 119.923 187.459 119.003 188.532V182.375H114.583V200.26H118.467L118.85 198.548C119.795 199.8 121.073 200.413 122.708 200.413C123.858 200.413 124.88 200.132 125.8 199.57C126.694 199.008 127.409 198.216 127.92 197.194C128.431 196.172 128.687 194.971 128.687 193.642C128.687 192.314 128.431 191.113 127.92 190.091C127.409 189.069 126.694 188.302 125.774 187.74ZM123.475 196.018C122.989 196.632 122.35 196.913 121.558 196.913C120.741 196.913 120.102 196.632 119.642 196.018C119.182 195.431 118.952 194.639 118.952 193.668C118.952 192.697 119.182 191.93 119.642 191.317C120.102 190.73 120.741 190.423 121.558 190.423C122.35 190.423 122.989 190.73 123.475 191.317C123.935 191.93 124.19 192.697 124.19 193.668C124.19 194.639 123.935 195.431 123.475 196.018ZM130.759 190.116C130.197 191.138 129.916 192.339 129.916 193.719C129.916 195.099 130.197 196.274 130.784 197.27C131.372 198.292 132.241 199.059 133.365 199.595C134.489 200.158 135.818 200.413 137.376 200.413C138.552 200.413 139.599 200.209 140.519 199.8C141.439 199.391 142.154 198.829 142.691 198.114C143.227 197.398 143.559 196.632 143.687 195.763H139.344C139.088 196.734 138.322 197.219 137.07 197.219C135.588 197.219 134.719 196.402 134.515 194.767V194.715H143.713C143.789 194.307 143.84 193.847 143.84 193.285C143.84 192.033 143.534 190.934 142.946 189.963C142.333 188.992 141.515 188.251 140.442 187.715C139.369 187.204 138.143 186.923 136.763 186.923C135.383 186.923 134.183 187.204 133.161 187.766C132.139 188.328 131.321 189.094 130.759 190.116ZM139.471 192.007H134.566C134.668 191.394 134.923 190.908 135.332 190.576C135.741 190.244 136.303 190.065 136.993 190.065C137.657 190.065 138.194 190.244 138.628 190.576C139.063 190.908 139.344 191.394 139.471 192.007ZM154.361 187.076H153.723C152.803 187.076 152.036 187.255 151.474 187.561C150.886 187.894 150.401 188.379 150.018 189.018L149.66 187.076H145.598V200.26H150.018V193.923C150.018 191.982 150.912 190.985 152.701 190.985H154.361V187.076ZM169.095 187.076H165.186L164.854 188.737C163.832 187.51 162.554 186.872 160.97 186.872C159.821 186.872 158.799 187.153 157.879 187.689C156.959 188.251 156.269 189.018 155.758 190.014C155.247 191.011 154.992 192.16 154.992 193.463C154.992 194.767 155.247 195.916 155.758 196.913C156.269 197.909 156.959 198.676 157.879 199.238C158.799 199.8 159.821 200.055 160.97 200.055C162.529 200.055 163.806 199.544 164.777 198.471V199.851C164.777 200.669 164.522 201.282 164.062 201.691C163.576 202.125 162.912 202.329 162.095 202.329C160.766 202.329 159.948 201.793 159.667 200.669H155.222C155.247 202.227 155.86 203.428 157.036 204.271C158.211 205.114 159.795 205.523 161.762 205.523C164.266 205.523 166.131 205.012 167.307 203.99C168.482 202.968 169.095 201.639 169.095 200.004V187.076ZM164.036 195.789C163.576 196.351 162.938 196.632 162.12 196.632C161.302 196.632 160.664 196.351 160.204 195.789C159.718 195.226 159.488 194.46 159.488 193.515C159.488 192.595 159.718 191.828 160.204 191.241C160.664 190.679 161.302 190.372 162.12 190.372C162.938 190.372 163.576 190.679 164.036 191.241C164.496 191.828 164.726 192.595 164.726 193.515C164.726 194.46 164.496 195.226 164.036 195.789Z" fill="black"/>
<path opacity="0.5" d="M235.486 200.26V198.573C235.878 198.556 236.201 198.505 236.457 198.42C236.729 198.335 236.934 198.139 237.07 197.833C237.223 197.526 237.3 197.032 237.3 196.351V186.565C237.3 186.105 237.308 185.662 237.325 185.236C237.36 184.811 237.385 184.487 237.402 184.265C237.13 184.282 236.789 184.3 236.38 184.317C235.971 184.317 235.673 184.325 235.486 184.342V182.375H248.261L248.414 187.331H246.728C246.728 186.395 246.566 185.688 246.242 185.211C245.919 184.734 245.519 184.419 245.042 184.265C244.565 184.095 244.096 184.018 243.636 184.036L242.717 184.061C242.359 184.061 242.052 184.112 241.797 184.214C241.541 184.3 241.345 184.504 241.209 184.828C241.073 185.134 241.005 185.62 241.005 186.284V190.73H243.636L243.534 188.532H245.501V194.741H243.815C243.815 194.026 243.704 193.506 243.483 193.182C243.262 192.859 242.955 192.663 242.563 192.595C242.188 192.51 241.771 192.476 241.311 192.493H241.005V196.07C241.005 196.529 240.996 196.972 240.979 197.398C240.962 197.824 240.937 198.148 240.902 198.369C241.09 198.352 241.337 198.344 241.643 198.344C241.95 198.326 242.248 198.318 242.538 198.318C242.844 198.301 243.057 198.292 243.176 198.292V200.26H235.486ZM255.039 200.669C253.813 200.669 252.706 200.405 251.718 199.877C250.73 199.348 249.946 198.599 249.367 197.628C248.805 196.64 248.524 195.482 248.524 194.153C248.524 192.74 248.814 191.505 249.393 190.449C249.989 189.375 250.772 188.549 251.743 187.97C252.731 187.374 253.804 187.076 254.963 187.076C256.189 187.076 257.288 187.34 258.259 187.868C259.229 188.396 259.996 189.154 260.558 190.142C261.12 191.113 261.401 192.28 261.401 193.642C261.401 195.073 261.129 196.317 260.584 197.373C260.038 198.429 259.289 199.246 258.335 199.825C257.381 200.388 256.283 200.669 255.039 200.669ZM255.141 198.855C255.823 198.837 256.334 198.599 256.674 198.139C257.032 197.679 257.279 197.1 257.415 196.402C257.552 195.703 257.62 194.996 257.62 194.281C257.62 193.651 257.569 193.012 257.466 192.365C257.381 191.718 257.237 191.13 257.032 190.602C256.828 190.074 256.547 189.648 256.189 189.324C255.848 189.001 255.422 188.847 254.911 188.864C254.247 188.881 253.719 189.12 253.327 189.58C252.953 190.04 252.68 190.619 252.51 191.317C252.356 191.999 252.28 192.714 252.28 193.463C252.28 194.332 252.373 195.184 252.561 196.018C252.748 196.853 253.046 197.543 253.455 198.088C253.881 198.616 254.443 198.872 255.141 198.855ZM263.251 198.599C263.728 198.599 264.069 198.505 264.273 198.318C264.478 198.131 264.605 197.867 264.656 197.526C264.725 197.168 264.759 196.768 264.759 196.325V192.033C264.759 191.726 264.767 191.385 264.784 191.011C264.801 190.619 264.827 190.236 264.861 189.861C264.588 189.878 264.265 189.895 263.89 189.912C263.532 189.912 263.26 189.921 263.072 189.938V187.996H264.094C264.759 187.996 265.363 187.911 265.908 187.74C266.47 187.57 266.837 187.4 267.007 187.229H268.259C268.293 187.4 268.319 187.723 268.336 188.2C268.353 188.66 268.361 189.069 268.361 189.427C268.821 188.864 269.255 188.413 269.664 188.072C270.073 187.732 270.473 187.485 270.865 187.331C271.274 187.161 271.683 187.076 272.091 187.076C272.688 187.076 273.207 187.246 273.65 187.587C274.093 187.911 274.314 188.447 274.314 189.197C274.314 189.452 274.255 189.725 274.135 190.014C274.016 190.287 273.829 190.517 273.573 190.704C273.318 190.891 272.969 190.985 272.526 190.985C272.185 190.985 271.836 190.883 271.478 190.679C271.121 190.474 270.916 190.082 270.865 189.503C270.524 189.503 270.184 189.648 269.843 189.938C269.502 190.21 269.196 190.542 268.923 190.934C268.668 191.309 268.489 191.658 268.387 191.982V196.146C268.387 196.385 268.378 196.725 268.361 197.168C268.344 197.594 268.319 198.003 268.284 198.395C268.557 198.361 268.855 198.344 269.179 198.344C269.519 198.326 269.775 198.318 269.945 198.318V200.26H263.251V198.599ZM275.989 185.824C275.989 185.517 275.989 185.168 275.989 184.776C276.006 184.368 276.032 183.976 276.066 183.601C275.794 183.618 275.47 183.635 275.095 183.652C274.737 183.652 274.465 183.661 274.278 183.678V181.736C275.078 181.736 275.742 181.693 276.27 181.608C276.816 181.523 277.241 181.421 277.548 181.302C277.872 181.182 278.093 181.072 278.212 180.97H279.592V188.456C280.171 187.945 280.759 187.587 281.355 187.383C281.951 187.178 282.513 187.076 283.041 187.076C284.063 187.076 284.957 187.34 285.724 187.868C286.507 188.396 287.112 189.146 287.538 190.116C287.981 191.087 288.202 192.229 288.202 193.54C288.202 194.903 287.947 196.129 287.436 197.219C286.942 198.292 286.235 199.136 285.315 199.749C284.395 200.362 283.288 200.669 281.994 200.669C281.534 200.669 280.946 200.566 280.231 200.362C279.532 200.175 278.885 199.766 278.289 199.136L277.522 200.26H275.989V185.824ZM279.592 196.427C279.592 197.006 279.686 197.466 279.873 197.807C280.06 198.148 280.299 198.395 280.588 198.548C280.878 198.701 281.168 198.786 281.457 198.803C282.224 198.82 282.82 198.599 283.246 198.139C283.688 197.679 283.995 197.075 284.165 196.325C284.353 195.559 284.446 194.758 284.446 193.923C284.446 193.14 284.353 192.399 284.165 191.701C283.978 191.002 283.68 190.44 283.271 190.014C282.862 189.571 282.326 189.358 281.662 189.375C281.236 189.392 280.844 189.503 280.486 189.708C280.129 189.895 279.83 190.15 279.592 190.474V196.427ZM296.129 200.669C294.886 200.669 293.787 200.396 292.833 199.851C291.879 199.289 291.138 198.505 290.61 197.5C290.082 196.478 289.818 195.278 289.818 193.898C289.818 192.705 290.082 191.59 290.61 190.551C291.138 189.512 291.879 188.677 292.833 188.047C293.804 187.4 294.928 187.076 296.206 187.076C296.921 187.076 297.619 187.178 298.301 187.383C298.982 187.57 299.595 187.902 300.14 188.379C300.702 188.856 301.145 189.503 301.469 190.321C301.81 191.138 301.971 192.16 301.954 193.387L293.574 193.54C293.574 194.46 293.685 195.286 293.906 196.018C294.145 196.751 294.528 197.33 295.056 197.756C295.584 198.182 296.291 198.395 297.177 198.395C297.517 198.395 297.9 198.335 298.326 198.216C298.769 198.097 299.212 197.901 299.655 197.628C300.115 197.339 300.541 196.955 300.932 196.478L302.082 197.551C301.469 198.42 300.813 199.084 300.115 199.544C299.416 199.987 298.718 200.285 298.02 200.439C297.338 200.592 296.708 200.669 296.129 200.669ZM293.727 191.752H298.429C298.411 191.036 298.309 190.474 298.122 190.065C297.952 189.639 297.713 189.333 297.407 189.146C297.1 188.958 296.742 188.864 296.333 188.864C295.584 188.864 294.996 189.137 294.57 189.682C294.145 190.21 293.864 190.9 293.727 191.752ZM309.698 200.669C308.966 200.669 308.25 200.575 307.552 200.388C306.854 200.2 306.309 199.962 305.917 199.672L305.968 200.439H304.026L303.924 196.044H305.585C305.636 196.555 305.84 197.023 306.198 197.449C306.556 197.875 307.024 198.216 307.603 198.471C308.182 198.71 308.83 198.829 309.545 198.829C309.835 198.829 310.107 198.786 310.363 198.701C310.635 198.616 310.857 198.48 311.027 198.292C311.214 198.088 311.308 197.841 311.308 197.551C311.308 197.228 311.189 196.964 310.95 196.759C310.729 196.555 310.397 196.359 309.954 196.172C309.528 195.984 308.991 195.771 308.344 195.533C307.816 195.329 307.28 195.116 306.734 194.894C306.206 194.673 305.712 194.409 305.253 194.102C304.81 193.779 304.452 193.387 304.179 192.927C303.907 192.45 303.771 191.871 303.771 191.19C303.771 190.696 303.864 190.21 304.052 189.733C304.239 189.239 304.529 188.796 304.92 188.405C305.312 187.996 305.806 187.672 306.402 187.434C307.016 187.195 307.739 187.076 308.574 187.076C309.034 187.076 309.553 187.153 310.133 187.306C310.729 187.442 311.231 187.655 311.64 187.945V187.204H313.582V191.726H311.921C311.819 191.13 311.606 190.619 311.282 190.193C310.976 189.767 310.575 189.444 310.082 189.222C309.588 188.984 309.034 188.864 308.421 188.864C307.995 188.864 307.603 188.967 307.245 189.171C306.905 189.375 306.734 189.725 306.734 190.219C306.734 190.61 306.871 190.925 307.143 191.164C307.416 191.385 307.791 191.573 308.267 191.726C308.744 191.879 309.272 192.058 309.852 192.263C310.72 192.552 311.487 192.893 312.151 193.285C312.832 193.676 313.369 194.153 313.761 194.715C314.152 195.26 314.348 195.933 314.348 196.734C314.348 197.62 314.127 198.352 313.684 198.931C313.241 199.51 312.662 199.945 311.947 200.234C311.248 200.524 310.499 200.669 309.698 200.669Z" fill="black"/>
<path d="M35.9501 128.8L39.3421 140H40.3821L43.2781 130.24L46.1741 140H47.2141L50.6221 128.8H49.7261L46.7021 138.864L43.7581 128.8H42.8781L39.8541 138.864L36.8621 128.8H35.9501ZM51.5443 133.776C51.2243 134.416 51.0803 135.136 51.0803 135.936C51.0803 136.752 51.2403 137.472 51.5603 138.096C51.8803 138.736 52.3443 139.216 52.9363 139.568C53.5283 139.92 54.2003 140.096 54.9683 140.096C55.8323 140.096 56.5843 139.84 57.2083 139.328C57.8323 138.816 58.2483 138.144 58.4403 137.312H57.6083C57.4483 137.952 57.1123 138.448 56.6323 138.816C56.1363 139.184 55.5603 139.36 54.9043 139.36C54.3283 139.36 53.8323 139.232 53.3843 138.96C52.9363 138.688 52.5843 138.304 52.3283 137.824C52.0723 137.344 51.9283 136.784 51.9283 136.144C51.9283 136.064 51.9283 136 51.9443 135.952H58.5523C58.5523 135.888 58.5683 135.776 58.5683 135.616C58.5363 134.832 58.3603 134.144 58.0403 133.568C57.7203 132.992 57.2723 132.56 56.7283 132.256C56.1683 131.952 55.5283 131.792 54.8243 131.792C54.0883 131.792 53.4483 131.968 52.8723 132.32C52.2963 132.672 51.8643 133.152 51.5443 133.776ZM57.7203 135.264H51.9923C52.0243 134.72 52.1843 134.24 52.4563 133.824C52.7123 133.408 53.0643 133.088 53.4803 132.864C53.8963 132.64 54.3443 132.512 54.8403 132.512C55.6403 132.512 56.3123 132.752 56.8243 133.232C57.3363 133.712 57.6403 134.4 57.7203 135.264ZM63.8917 131.888H63.5237C62.8197 131.888 62.2917 132.032 61.9077 132.32C61.5237 132.608 61.2357 133.008 61.0437 133.504L60.9157 131.888H60.2117V140H61.0277V135.888C61.0277 134.928 61.1877 134.16 61.5397 133.568C61.8757 132.976 62.4837 132.672 63.3637 132.672H63.8917V131.888ZM65.714 128.912C65.634 129.008 65.602 129.136 65.618 129.28L65.778 132.352H66.37L66.53 129.28C66.53 129.12 66.498 128.992 66.434 128.896C66.354 128.8 66.226 128.752 66.066 128.752C65.906 128.752 65.794 128.816 65.714 128.912ZM67.8645 131.888L71.0325 140H72.0085L75.1765 131.888H74.3285L71.5445 139.056L68.7445 131.888H67.8645ZM76.1693 133.776C75.8493 134.416 75.7053 135.136 75.7053 135.936C75.7053 136.752 75.8653 137.472 76.1853 138.096C76.5053 138.736 76.9693 139.216 77.5613 139.568C78.1533 139.92 78.8253 140.096 79.5933 140.096C80.4573 140.096 81.2093 139.84 81.8333 139.328C82.4573 138.816 82.8733 138.144 83.0653 137.312H82.2333C82.0733 137.952 81.7373 138.448 81.2573 138.816C80.7613 139.184 80.1853 139.36 79.5293 139.36C78.9533 139.36 78.4573 139.232 78.0093 138.96C77.5613 138.688 77.2093 138.304 76.9533 137.824C76.6973 137.344 76.5533 136.784 76.5533 136.144C76.5533 136.064 76.5533 136 76.5693 135.952H83.1773C83.1773 135.888 83.1933 135.776 83.1933 135.616C83.1613 134.832 82.9853 134.144 82.6653 133.568C82.3453 132.992 81.8973 132.56 81.3533 132.256C80.7933 131.952 80.1533 131.792 79.4493 131.792C78.7133 131.792 78.0733 131.968 77.4973 132.32C76.9213 132.672 76.4893 133.152 76.1693 133.776ZM82.3453 135.264H76.6173C76.6493 134.72 76.8093 134.24 77.0813 133.824C77.3373 133.408 77.6893 133.088 78.1053 132.864C78.5213 132.64 78.9693 132.512 79.4653 132.512C80.2653 132.512 80.9373 132.752 81.4493 133.232C81.9613 133.712 82.2653 134.4 82.3453 135.264ZM95.0372 132.304C94.4612 131.968 93.8052 131.792 93.0692 131.792C92.3332 131.792 91.6932 131.984 91.1652 132.336C90.6212 132.704 90.2212 133.184 89.9652 133.776V128.8H89.1492V140H89.8532L89.9812 138.16C90.2212 138.768 90.6052 139.232 91.1492 139.584C91.6772 139.936 92.3172 140.096 93.0692 140.096C93.8052 140.096 94.4612 139.92 95.0372 139.568C95.6132 139.216 96.0772 138.736 96.3972 138.096C96.7172 137.472 96.8932 136.752 96.8932 135.936C96.8932 135.104 96.7172 134.384 96.3972 133.744C96.0772 133.12 95.6132 132.64 95.0372 132.304ZM94.5892 138.928C94.1252 139.216 93.5972 139.36 93.0052 139.36C92.3972 139.36 91.8692 139.216 91.4052 138.928C90.9412 138.64 90.5892 138.24 90.3332 137.712C90.0772 137.2 89.9492 136.592 89.9492 135.92C89.9492 135.28 90.0772 134.688 90.3332 134.176C90.5892 133.664 90.9412 133.248 91.4052 132.96C91.8692 132.672 92.3972 132.512 93.0052 132.512C93.5972 132.512 94.1252 132.672 94.5892 132.96C95.0532 133.248 95.4212 133.664 95.6772 134.176C95.9332 134.688 96.0612 135.28 96.0612 135.936C96.0612 136.608 95.9332 137.2 95.6772 137.712C95.4212 138.24 95.0532 138.64 94.5892 138.928ZM98.7318 133.776C98.4118 134.416 98.2678 135.136 98.2678 135.936C98.2678 136.752 98.4278 137.472 98.7478 138.096C99.0678 138.736 99.5318 139.216 100.124 139.568C100.716 139.92 101.388 140.096 102.156 140.096C103.02 140.096 103.772 139.84 104.396 139.328C105.02 138.816 105.436 138.144 105.628 137.312H104.796C104.636 137.952 104.3 138.448 103.82 138.816C103.324 139.184 102.748 139.36 102.092 139.36C101.516 139.36 101.02 139.232 100.572 138.96C100.124 138.688 99.7718 138.304 99.5158 137.824C99.2598 137.344 99.1158 136.784 99.1158 136.144C99.1158 136.064 99.1158 136 99.1318 135.952H105.74C105.74 135.888 105.756 135.776 105.756 135.616C105.724 134.832 105.548 134.144 105.228 133.568C104.908 132.992 104.46 132.56 103.916 132.256C103.356 131.952 102.716 131.792 102.012 131.792C101.276 131.792 100.636 131.968 100.06 132.32C99.4838 132.672 99.0518 133.152 98.7318 133.776ZM104.908 135.264H99.1798C99.2118 134.72 99.3718 134.24 99.6438 133.824C99.8998 133.408 100.252 133.088 100.668 132.864C101.084 132.64 101.532 132.512 102.028 132.512C102.828 132.512 103.5 132.752 104.012 133.232C104.524 133.712 104.828 134.4 104.908 135.264ZM107.591 133.776C107.271 134.416 107.127 135.136 107.127 135.936C107.127 136.752 107.287 137.472 107.607 138.096C107.927 138.736 108.391 139.216 108.983 139.568C109.575 139.92 110.247 140.096 111.015 140.096C111.879 140.096 112.631 139.84 113.255 139.328C113.879 138.816 114.295 138.144 114.487 137.312H113.655C113.495 137.952 113.159 138.448 112.679 138.816C112.183 139.184 111.607 139.36 110.951 139.36C110.375 139.36 109.879 139.232 109.431 138.96C108.983 138.688 108.631 138.304 108.375 137.824C108.119 137.344 107.975 136.784 107.975 136.144C107.975 136.064 107.975 136 107.991 135.952H114.599C114.599 135.888 114.615 135.776 114.615 135.616C114.583 134.832 114.407 134.144 114.087 133.568C113.767 132.992 113.319 132.56 112.775 132.256C112.215 131.952 111.575 131.792 110.871 131.792C110.135 131.792 109.495 131.968 108.919 132.32C108.343 132.672 107.911 133.152 107.591 133.776ZM113.767 135.264H108.039C108.071 134.72 108.231 134.24 108.503 133.824C108.759 133.408 109.111 133.088 109.527 132.864C109.943 132.64 110.391 132.512 110.887 132.512C111.687 132.512 112.359 132.752 112.871 133.232C113.383 133.712 113.687 134.4 113.767 135.264ZM122.323 132.704C121.747 132.096 120.963 131.792 120.003 131.792C119.283 131.792 118.675 131.968 118.195 132.288C117.699 132.624 117.331 133.072 117.091 133.616L116.963 131.888H116.259V140H117.075V136C117.075 134.944 117.315 134.112 117.827 133.488C118.323 132.864 119.011 132.544 119.875 132.544C120.659 132.544 121.267 132.8 121.715 133.312C122.163 133.824 122.387 134.544 122.387 135.488V140H123.203V135.456C123.203 134.24 122.899 133.312 122.323 132.704ZM140.537 132.688C139.993 132.096 139.273 131.792 138.377 131.792C137.657 131.792 137.049 131.984 136.569 132.336C136.073 132.704 135.705 133.2 135.465 133.824C135.273 133.168 134.937 132.672 134.473 132.32C133.993 131.968 133.433 131.792 132.793 131.792C132.137 131.792 131.593 131.968 131.145 132.304C130.697 132.64 130.361 133.088 130.153 133.632L130.025 131.888H129.321V140H130.121V135.872C130.121 134.88 130.345 134.064 130.809 133.456C131.257 132.848 131.881 132.544 132.649 132.544C133.369 132.544 133.929 132.8 134.329 133.28C134.729 133.776 134.937 134.48 134.937 135.408V140H135.753V135.584C135.769 134.656 136.009 133.92 136.457 133.376C136.905 132.832 137.513 132.544 138.281 132.544C138.985 132.544 139.545 132.8 139.945 133.28C140.329 133.776 140.537 134.48 140.537 135.408V140H141.369V135.36C141.369 134.176 141.081 133.296 140.537 132.688ZM143.372 133.776C143.052 134.416 142.908 135.136 142.908 135.936C142.908 136.752 143.068 137.472 143.388 138.096C143.708 138.736 144.172 139.216 144.764 139.568C145.356 139.92 146.028 140.096 146.796 140.096C147.66 140.096 148.412 139.84 149.036 139.328C149.66 138.816 150.076 138.144 150.268 137.312H149.436C149.276 137.952 148.94 138.448 148.46 138.816C147.964 139.184 147.388 139.36 146.732 139.36C146.156 139.36 145.66 139.232 145.212 138.96C144.764 138.688 144.412 138.304 144.156 137.824C143.9 137.344 143.756 136.784 143.756 136.144C143.756 136.064 143.756 136 143.772 135.952H150.38C150.38 135.888 150.396 135.776 150.396 135.616C150.364 134.832 150.188 134.144 149.868 133.568C149.548 132.992 149.1 132.56 148.556 132.256C147.996 131.952 147.356 131.792 146.652 131.792C145.916 131.792 145.276 131.968 144.7 132.32C144.124 132.672 143.692 133.152 143.372 133.776ZM149.548 135.264H143.82C143.852 134.72 144.012 134.24 144.284 133.824C144.54 133.408 144.892 133.088 145.308 132.864C145.724 132.64 146.172 132.512 146.668 132.512C147.468 132.512 148.14 132.752 148.652 133.232C149.164 133.712 149.468 134.4 149.548 135.264ZM158.104 132.704C157.528 132.096 156.744 131.792 155.784 131.792C155.064 131.792 154.456 131.968 153.976 132.288C153.48 132.624 153.112 133.072 152.872 133.616L152.744 131.888H152.04V140H152.856V136C152.856 134.944 153.096 134.112 153.608 133.488C154.104 132.864 154.792 132.544 155.656 132.544C156.44 132.544 157.048 132.8 157.496 133.312C157.944 133.824 158.168 134.544 158.168 135.488V140H158.984V135.456C158.984 134.24 158.68 133.312 158.104 132.704ZM161.334 132.64V138.112C161.334 138.784 161.478 139.264 161.766 139.552C162.054 139.856 162.55 140 163.238 140H164.454V139.248H163.27C162.854 139.248 162.566 139.168 162.406 138.992C162.23 138.816 162.15 138.512 162.15 138.096V132.64H164.31V131.888H162.15V129.616H161.334V131.888H159.798V132.64H161.334ZM166.387 129.072C166.275 128.976 166.131 128.912 165.971 128.912C165.811 128.912 165.667 128.976 165.555 129.072C165.443 129.184 165.395 129.328 165.395 129.488C165.395 129.664 165.443 129.808 165.555 129.904C165.667 130.016 165.811 130.064 165.971 130.064C166.131 130.064 166.275 130.016 166.387 129.904C166.483 129.808 166.547 129.664 166.547 129.488C166.547 129.328 166.483 129.184 166.387 129.072ZM165.571 131.888V140H166.387V131.888H165.571ZM169.905 139.568C170.481 139.92 171.153 140.096 171.921 140.096C172.673 140.096 173.345 139.92 173.937 139.568C174.529 139.216 174.993 138.736 175.329 138.096C175.649 137.472 175.825 136.752 175.825 135.936C175.825 135.136 175.649 134.416 175.329 133.792C174.993 133.168 174.529 132.672 173.937 132.32C173.345 131.968 172.673 131.792 171.921 131.792C171.153 131.792 170.481 131.968 169.905 132.32C169.313 132.672 168.849 133.168 168.529 133.792C168.193 134.416 168.033 135.136 168.033 135.936C168.033 136.752 168.193 137.472 168.529 138.096C168.849 138.736 169.313 139.216 169.905 139.568ZM173.521 138.928C173.041 139.216 172.513 139.36 171.921 139.36C171.313 139.36 170.785 139.216 170.321 138.928C169.857 138.64 169.505 138.24 169.249 137.712C168.993 137.2 168.865 136.608 168.865 135.936C168.865 135.28 168.993 134.688 169.249 134.176C169.505 133.664 169.857 133.248 170.321 132.96C170.785 132.672 171.313 132.512 171.921 132.512C172.513 132.512 173.041 132.672 173.521 132.96C173.985 133.248 174.353 133.664 174.609 134.176C174.865 134.688 174.993 135.28 174.993 135.936C174.993 136.608 174.865 137.2 174.609 137.712C174.353 138.24 173.985 138.64 173.521 138.928ZM183.541 132.704C182.965 132.096 182.181 131.792 181.221 131.792C180.501 131.792 179.893 131.968 179.413 132.288C178.917 132.624 178.549 133.072 178.309 133.616L178.181 131.888H177.477V140H178.293V136C178.293 134.944 178.533 134.112 179.045 133.488C179.541 132.864 180.229 132.544 181.093 132.544C181.877 132.544 182.485 132.8 182.933 133.312C183.381 133.824 183.605 134.544 183.605 135.488V140H184.421V135.456C184.421 134.24 184.117 133.312 183.541 132.704ZM186.419 133.776C186.099 134.416 185.955 135.136 185.955 135.936C185.955 136.752 186.115 137.472 186.435 138.096C186.755 138.736 187.219 139.216 187.811 139.568C188.403 139.92 189.075 140.096 189.843 140.096C190.707 140.096 191.459 139.84 192.083 139.328C192.707 138.816 193.123 138.144 193.315 137.312H192.483C192.323 137.952 191.987 138.448 191.507 138.816C191.011 139.184 190.435 139.36 189.779 139.36C189.203 139.36 188.707 139.232 188.259 138.96C187.811 138.688 187.459 138.304 187.203 137.824C186.947 137.344 186.803 136.784 186.803 136.144C186.803 136.064 186.803 136 186.819 135.952H193.427C193.427 135.888 193.443 135.776 193.443 135.616C193.411 134.832 193.235 134.144 192.915 133.568C192.595 132.992 192.147 132.56 191.603 132.256C191.043 131.952 190.403 131.792 189.699 131.792C188.963 131.792 188.323 131.968 187.747 132.32C187.171 132.672 186.739 133.152 186.419 133.776ZM192.595 135.264H186.867C186.899 134.72 187.059 134.24 187.331 133.824C187.587 133.408 187.939 133.088 188.355 132.864C188.771 132.64 189.219 132.512 189.715 132.512C190.515 132.512 191.187 132.752 191.699 133.232C192.211 133.712 192.515 134.4 192.595 135.264ZM202.559 128.8H201.743V133.712C201.487 133.12 201.087 132.656 200.559 132.304C200.015 131.968 199.375 131.792 198.639 131.792C197.903 131.792 197.231 131.968 196.655 132.32C196.079 132.672 195.615 133.168 195.295 133.792C194.975 134.432 194.815 135.136 194.815 135.936C194.815 136.784 194.975 137.52 195.295 138.144C195.615 138.768 196.079 139.248 196.655 139.584C197.231 139.936 197.903 140.096 198.639 140.096C199.359 140.096 199.983 139.92 200.527 139.568C201.055 139.216 201.455 138.752 201.727 138.16L201.855 140H202.559V128.8ZM200.287 138.928C199.823 139.216 199.295 139.36 198.703 139.36C198.095 139.36 197.567 139.216 197.103 138.928C196.639 138.64 196.287 138.24 196.031 137.712C195.775 137.2 195.647 136.608 195.647 135.936C195.647 135.28 195.775 134.688 196.031 134.176C196.287 133.664 196.639 133.248 197.103 132.96C197.567 132.672 198.095 132.512 198.703 132.512C199.295 132.512 199.823 132.672 200.287 132.96C200.751 133.248 201.119 133.664 201.375 134.176C201.631 134.704 201.759 135.296 201.759 135.952C201.759 136.624 201.631 137.216 201.375 137.728C201.119 138.24 200.751 138.64 200.287 138.928ZM209.606 129.072C209.494 128.976 209.35 128.912 209.19 128.912C209.03 128.912 208.886 128.976 208.774 129.072C208.662 129.184 208.614 129.328 208.614 129.488C208.614 129.664 208.662 129.808 208.774 129.904C208.886 130.016 209.03 130.064 209.19 130.064C209.35 130.064 209.494 130.016 209.606 129.904C209.702 129.808 209.766 129.664 209.766 129.488C209.766 129.328 209.702 129.184 209.606 129.072ZM208.79 131.888V140H209.606V131.888H208.79ZM217.588 132.704C217.012 132.096 216.228 131.792 215.268 131.792C214.548 131.792 213.94 131.968 213.46 132.288C212.964 132.624 212.596 133.072 212.356 133.616L212.228 131.888H211.524V140H212.34V136C212.34 134.944 212.58 134.112 213.092 133.488C213.588 132.864 214.276 132.544 215.14 132.544C215.924 132.544 216.532 132.8 216.98 133.312C217.428 133.824 217.652 134.544 217.652 135.488V140H218.468V135.456C218.468 134.24 218.164 133.312 217.588 132.704ZM225.131 132.64V138.112C225.131 138.784 225.275 139.264 225.563 139.552C225.851 139.856 226.347 140 227.035 140H228.251V139.248H227.067C226.651 139.248 226.363 139.168 226.203 138.992C226.027 138.816 225.947 138.512 225.947 138.096V132.64H228.107V131.888H225.947V129.616H225.131V131.888H223.595V132.64H225.131ZM235.432 132.704C234.856 132.096 234.072 131.792 233.112 131.792C232.376 131.792 231.768 131.984 231.288 132.336C230.792 132.704 230.424 133.2 230.184 133.808V128.8H229.368V140H230.184V136C230.184 134.944 230.424 134.112 230.936 133.488C231.432 132.864 232.12 132.544 232.984 132.544C233.768 132.544 234.376 132.8 234.824 133.312C235.272 133.824 235.496 134.544 235.496 135.488V140H236.312V135.456C236.312 134.24 236.008 133.312 235.432 132.704ZM238.326 133.776C238.006 134.416 237.862 135.136 237.862 135.936C237.862 136.752 238.022 137.472 238.342 138.096C238.662 138.736 239.126 139.216 239.718 139.568C240.31 139.92 240.982 140.096 241.75 140.096C242.614 140.096 243.366 139.84 243.99 139.328C244.614 138.816 245.03 138.144 245.222 137.312H244.39C244.23 137.952 243.894 138.448 243.414 138.816C242.918 139.184 242.342 139.36 241.686 139.36C241.11 139.36 240.614 139.232 240.166 138.96C239.718 138.688 239.366 138.304 239.11 137.824C238.854 137.344 238.71 136.784 238.71 136.144C238.71 136.064 238.71 136 238.726 135.952H245.334C245.334 135.888 245.35 135.776 245.35 135.616C245.318 134.832 245.142 134.144 244.822 133.568C244.502 132.992 244.054 132.56 243.51 132.256C242.95 131.952 242.31 131.792 241.606 131.792C240.87 131.792 240.23 131.968 239.654 132.32C239.078 132.672 238.646 133.152 238.326 133.776ZM244.502 135.264H238.774C238.806 134.72 238.966 134.24 239.238 133.824C239.494 133.408 239.846 133.088 240.262 132.864C240.678 132.64 241.126 132.512 241.622 132.512C242.422 132.512 243.094 132.752 243.606 133.232C244.118 133.712 244.422 134.4 244.502 135.264ZM257.193 132.304C256.617 131.968 255.961 131.792 255.225 131.792C254.489 131.792 253.849 131.968 253.321 132.32C252.793 132.672 252.393 133.152 252.137 133.744L252.009 131.888H251.305V143.2H252.121V138.128C252.345 138.736 252.729 139.216 253.273 139.568C253.817 139.92 254.457 140.096 255.225 140.096C255.961 140.096 256.617 139.92 257.193 139.568C257.769 139.216 258.233 138.736 258.553 138.096C258.873 137.472 259.049 136.752 259.049 135.936C259.049 135.104 258.873 134.384 258.553 133.744C258.233 133.12 257.769 132.64 257.193 132.304ZM256.745 138.928C256.281 139.216 255.753 139.36 255.161 139.36C254.553 139.36 254.025 139.216 253.561 138.928C253.097 138.64 252.745 138.24 252.489 137.712C252.233 137.2 252.105 136.592 252.105 135.92C252.105 135.28 252.233 134.688 252.489 134.176C252.745 133.664 253.097 133.248 253.561 132.96C254.025 132.672 254.553 132.512 255.161 132.512C255.753 132.512 256.281 132.672 256.745 132.96C257.209 133.248 257.577 133.664 257.833 134.176C258.089 134.688 258.217 135.28 258.217 135.936C258.217 136.608 258.089 137.2 257.833 137.712C257.577 138.24 257.209 138.64 256.745 138.928ZM264.376 131.888H264.008C263.304 131.888 262.776 132.032 262.392 132.32C262.008 132.608 261.72 133.008 261.528 133.504L261.4 131.888H260.696V140H261.512V135.888C261.512 134.928 261.672 134.16 262.024 133.568C262.36 132.976 262.968 132.672 263.848 132.672H264.376V131.888ZM265.294 133.776C264.974 134.416 264.83 135.136 264.83 135.936C264.83 136.752 264.99 137.472 265.31 138.096C265.63 138.736 266.094 139.216 266.686 139.568C267.278 139.92 267.95 140.096 268.718 140.096C269.582 140.096 270.334 139.84 270.958 139.328C271.582 138.816 271.998 138.144 272.19 137.312H271.358C271.198 137.952 270.862 138.448 270.382 138.816C269.886 139.184 269.31 139.36 268.654 139.36C268.078 139.36 267.582 139.232 267.134 138.96C266.686 138.688 266.334 138.304 266.078 137.824C265.822 137.344 265.678 136.784 265.678 136.144C265.678 136.064 265.678 136 265.694 135.952H272.302C272.302 135.888 272.318 135.776 272.318 135.616C272.286 134.832 272.11 134.144 271.79 133.568C271.47 132.992 271.022 132.56 270.478 132.256C269.918 131.952 269.278 131.792 268.574 131.792C267.838 131.792 267.198 131.968 266.622 132.32C266.046 132.672 265.614 133.152 265.294 133.776ZM271.47 135.264H265.742C265.774 134.72 265.934 134.24 266.206 133.824C266.462 133.408 266.814 133.088 267.23 132.864C267.646 132.64 268.094 132.512 268.59 132.512C269.39 132.512 270.062 132.752 270.574 133.232C271.086 133.712 271.39 134.4 271.47 135.264ZM274.474 137.504H273.658C273.674 138.336 273.994 138.976 274.618 139.424C275.226 139.872 276.058 140.096 277.082 140.096C277.962 140.096 278.698 139.888 279.306 139.472C279.914 139.056 280.218 138.48 280.218 137.776C280.218 137.248 280.074 136.832 279.786 136.512C279.498 136.208 279.146 135.984 278.698 135.84C278.25 135.696 277.674 135.568 276.986 135.472C276.41 135.408 275.978 135.328 275.69 135.248C275.386 135.184 275.13 135.04 274.922 134.848C274.714 134.656 274.618 134.384 274.618 134.032C274.618 133.584 274.826 133.2 275.242 132.912C275.658 132.624 276.202 132.48 276.874 132.48C277.514 132.48 278.058 132.64 278.49 132.944C278.922 133.248 279.178 133.664 279.258 134.176H280.074C279.994 133.408 279.658 132.816 279.082 132.4C278.506 131.984 277.754 131.776 276.826 131.776C276.25 131.776 275.722 131.888 275.274 132.08C274.826 132.272 274.458 132.544 274.202 132.896C273.946 133.248 273.818 133.648 273.818 134.096C273.818 134.608 273.946 135.008 274.234 135.296C274.506 135.584 274.858 135.792 275.29 135.92C275.706 136.048 276.266 136.144 276.954 136.24C277.498 136.336 277.946 136.416 278.282 136.512C278.602 136.608 278.874 136.752 279.082 136.96C279.29 137.168 279.402 137.456 279.402 137.824C279.402 138.304 279.178 138.672 278.746 138.96C278.298 139.248 277.754 139.392 277.082 139.392C276.314 139.392 275.69 139.232 275.226 138.896C274.746 138.56 274.506 138.096 274.474 137.504ZM282.208 137.504H281.392C281.408 138.336 281.728 138.976 282.352 139.424C282.96 139.872 283.792 140.096 284.816 140.096C285.696 140.096 286.432 139.888 287.04 139.472C287.648 139.056 287.952 138.48 287.952 137.776C287.952 137.248 287.808 136.832 287.52 136.512C287.232 136.208 286.88 135.984 286.432 135.84C285.984 135.696 285.408 135.568 284.72 135.472C284.144 135.408 283.712 135.328 283.424 135.248C283.12 135.184 282.864 135.04 282.656 134.848C282.448 134.656 282.352 134.384 282.352 134.032C282.352 133.584 282.56 133.2 282.976 132.912C283.392 132.624 283.936 132.48 284.608 132.48C285.248 132.48 285.792 132.64 286.224 132.944C286.656 133.248 286.912 133.664 286.992 134.176H287.808C287.728 133.408 287.392 132.816 286.816 132.4C286.24 131.984 285.488 131.776 284.56 131.776C283.984 131.776 283.456 131.888 283.008 132.08C282.56 132.272 282.192 132.544 281.936 132.896C281.68 133.248 281.552 133.648 281.552 134.096C281.552 134.608 281.68 135.008 281.968 135.296C282.24 135.584 282.592 135.792 283.024 135.92C283.44 136.048 284 136.144 284.688 136.24C285.232 136.336 285.68 136.416 286.016 136.512C286.336 136.608 286.608 136.752 286.816 136.96C287.024 137.168 287.136 137.456 287.136 137.824C287.136 138.304 286.912 138.672 286.48 138.96C286.032 139.248 285.488 139.392 284.816 139.392C284.048 139.392 283.424 139.232 282.96 138.896C282.48 138.56 282.24 138.096 282.208 137.504Z" fill="black"/>
</svg>
