<svg width="129" height="18" viewBox="0 0 129 18" fill="none" xmlns="http://www.w3.org/2000/svg">
<g clip-path="url(#clip0_201_1203)">
<path d="M2.93802 17.0595V9.06692H0.763916V6.18923H2.93802V3.7313C2.93802 1.79984 4.22228 0.026123 7.18147 0.026123C8.3796 0.026123 9.26557 0.137777 9.26557 0.137777L9.19576 2.82506C9.19576 2.82506 8.29222 2.81651 7.30623 2.81651C6.2391 2.81651 6.06813 3.29455 6.06813 4.08798V6.18923H9.28058L9.14081 9.06692H6.06813L6.06813 17.0595H2.93802Z" fill="#010101"/>
</g>
<g clip-path="url(#clip1_201_1203)">
<path d="M68.6439 3.53002C68.0513 3.79262 67.4146 3.97005 66.7454 4.05025C67.4359 3.63704 67.9526 2.98671 68.1989 2.22059C67.5501 2.60596 66.84 2.87722 66.0995 3.02257C65.6016 2.4909 64.942 2.13849 64.2233 2.02007C63.5045 1.90165 62.7667 2.02385 62.1245 2.36768C61.4823 2.71151 60.9716 3.25775 60.6717 3.92158C60.3717 4.58541 60.2994 5.3297 60.4658 6.03889C59.1511 5.97289 57.8651 5.63119 56.691 5.03599C55.517 4.44078 54.4813 3.60537 53.651 2.58396C53.3671 3.07367 53.2039 3.64145 53.2039 4.24613C53.2036 4.79049 53.3376 5.3265 53.5941 5.80662C53.8507 6.28674 54.2217 6.69612 54.6744 6.99844C54.1494 6.98173 53.636 6.83987 53.1769 6.58467V6.62725C53.1769 7.39073 53.4409 8.13071 53.9244 8.72164C54.4078 9.31257 55.0808 9.71804 55.8291 9.86926C55.3421 10.0011 54.8315 10.0205 54.3359 9.92604C54.547 10.583 54.9583 11.1574 55.5122 11.569C56.066 11.9806 56.7347 12.2086 57.4246 12.2213C56.2534 13.1407 54.8071 13.6394 53.3181 13.6372C53.0544 13.6372 52.7909 13.6218 52.5289 13.591C54.0403 14.5628 55.7996 15.0785 57.5963 15.0765C63.6787 15.0765 67.0037 10.0389 67.0037 5.66984C67.0037 5.52789 67.0002 5.38453 66.9938 5.24258C67.6405 4.77486 68.1988 4.19567 68.6425 3.53215L68.6439 3.53002Z" fill="#010101"/>
</g>
<g clip-path="url(#clip2_201_1203)">
<path fill-rule="evenodd" clip-rule="evenodd" d="M116.779 0.782682C117.611 0.744356 117.877 0.73584 119.997 0.73584C122.118 0.73584 122.383 0.745066 123.215 0.782682C124.047 0.820297 124.615 0.953015 125.112 1.14535C125.632 1.34194 126.104 1.64925 126.494 2.0467C126.891 2.43633 127.198 2.90759 127.394 3.42853C127.587 3.92533 127.719 4.49311 127.757 5.32348C127.796 6.15741 127.804 6.42284 127.804 8.54278C127.804 10.6634 127.795 10.9289 127.757 11.7614C127.72 12.5918 127.587 13.1595 127.394 13.6563C127.198 14.1773 126.891 14.6494 126.494 15.0396C126.104 15.437 125.632 15.7436 125.112 15.9395C124.615 16.1326 124.047 16.2646 123.217 16.3029C122.383 16.3412 122.118 16.3497 119.997 16.3497C117.877 16.3497 117.611 16.3405 116.779 16.3029C115.948 16.2653 115.381 16.1326 114.884 15.9395C114.363 15.7436 113.891 15.4365 113.5 15.0396C113.103 14.6497 112.796 14.1779 112.6 13.657C112.407 13.1602 112.275 12.5925 112.237 11.7621C112.199 10.9282 112.19 10.6627 112.19 8.54278C112.19 6.42213 112.2 6.1567 112.237 5.3249C112.275 4.49311 112.407 3.92533 112.6 3.42853C112.796 2.90765 113.104 2.43585 113.501 2.04599C113.891 1.6489 114.362 1.34155 114.883 1.14535C115.38 0.953015 115.948 0.821007 116.778 0.782682H116.779ZM123.152 2.18793C122.329 2.15032 122.082 2.14251 119.997 2.14251C117.913 2.14251 117.666 2.15032 116.843 2.18793C116.081 2.22271 115.668 2.34975 115.393 2.45692C115.028 2.59886 114.768 2.76707 114.495 3.04031C114.236 3.2923 114.036 3.59906 113.911 3.93811C113.804 4.21348 113.677 4.62654 113.642 5.38807C113.605 6.21135 113.597 6.45833 113.597 8.54278C113.597 10.6272 113.605 10.8742 113.642 11.6975C113.677 12.459 113.804 12.8721 113.911 13.1475C114.036 13.486 114.236 13.7933 114.495 14.0453C114.747 14.3043 115.054 14.5037 115.393 14.6287C115.668 14.7358 116.081 14.8629 116.843 14.8976C117.666 14.9353 117.912 14.9431 119.997 14.9431C122.082 14.9431 122.329 14.9353 123.152 14.8976C123.913 14.8629 124.327 14.7358 124.602 14.6287C124.966 14.4867 125.226 14.3185 125.5 14.0453C125.759 13.7933 125.958 13.486 126.083 13.1475C126.19 12.8721 126.317 12.459 126.352 11.6975C126.39 10.8742 126.398 10.6272 126.398 8.54278C126.398 6.45833 126.39 6.21135 126.352 5.38807C126.317 4.62654 126.19 4.21348 126.083 3.93811C125.941 3.57402 125.773 3.31355 125.5 3.04031C125.248 2.78131 124.941 2.58198 124.602 2.45692C124.327 2.34975 123.913 2.22271 123.152 2.18793ZM119 10.9495C119.557 11.1813 120.177 11.2126 120.754 11.038C121.332 10.8634 121.831 10.4938 122.166 9.99221C122.501 9.49067 122.652 8.88833 122.592 8.28807C122.532 7.68781 122.266 7.12687 121.839 6.70106C121.567 6.42886 121.237 6.22044 120.875 6.0908C120.512 5.96116 120.125 5.91352 119.742 5.95132C119.359 5.98911 118.989 6.1114 118.659 6.30938C118.328 6.50736 118.046 6.7761 117.832 7.09627C117.618 7.41643 117.478 7.78004 117.421 8.16093C117.365 8.54181 117.393 8.9305 117.505 9.29901C117.617 9.66751 117.809 10.0067 118.067 10.2921C118.326 10.5774 118.644 10.802 119 10.9495ZM117.16 5.70532C117.532 5.33269 117.975 5.03711 118.462 4.83545C118.948 4.63379 119.47 4.53 119.997 4.53C120.524 4.53 121.046 4.63379 121.533 4.83545C122.02 5.03711 122.462 5.33269 122.835 5.70532C123.207 6.07794 123.503 6.5203 123.705 7.00716C123.906 7.49401 124.01 8.01582 124.01 8.54278C124.01 9.06975 123.906 9.59156 123.705 10.0784C123.503 10.5653 123.207 11.0076 122.835 11.3803C122.082 12.1328 121.062 12.5556 119.997 12.5556C118.933 12.5556 117.912 12.1328 117.16 11.3803C116.407 10.6277 115.984 9.60704 115.984 8.54278C115.984 7.47853 116.407 6.45786 117.16 5.70532ZM124.9 5.1276C124.992 5.0405 125.066 4.93575 125.117 4.81956C125.169 4.70338 125.196 4.57811 125.198 4.45119C125.2 4.32426 125.176 4.19825 125.128 4.08063C125.08 3.963 125.01 3.85614 124.92 3.76638C124.83 3.67662 124.723 3.60578 124.606 3.55806C124.488 3.51034 124.362 3.48671 124.235 3.48856C124.108 3.49041 123.983 3.51771 123.867 3.56884C123.75 3.61997 123.646 3.69389 123.559 3.78623C123.389 3.96581 123.296 4.20434 123.3 4.45119C123.304 4.69803 123.403 4.93376 123.578 5.10833C123.752 5.28289 123.988 5.38255 124.235 5.38615C124.482 5.38975 124.72 5.297 124.9 5.1276Z" fill="#010101"/>
</g>
<defs>
<clipPath id="clip0_201_1203">
<rect width="8.51667" height="17.0333" fill="white" transform="translate(0.763916 0.026123)"/>
</clipPath>
<clipPath id="clip1_201_1203">
<rect width="17.0333" height="17.0333" fill="white" transform="translate(51.8639 0.026123)"/>
</clipPath>
<clipPath id="clip2_201_1203">
<rect width="17.0333" height="17.0333" fill="white" transform="translate(111.481 0.026123)"/>
</clipPath>
</defs>
</svg>
