<svg width="79" height="37" viewBox="0 0 79 37" fill="none" xmlns="http://www.w3.org/2000/svg">
<path d="M46.2753 18.6376C46.2753 26.8036 52.8951 33.4234 61.0612 33.4234C69.2272 33.4234 75.847 26.8036 75.847 18.6376C75.847 10.4715 69.2272 3.85168 61.0612 3.85168C52.8951 3.85168 46.2753 10.4715 46.2753 18.6376Z" stroke="black" stroke-width="1.41944"/>
<path d="M58.8433 12.7232L64.7577 18.6376L58.8433 24.5519" stroke="black" stroke-width="1.41944" stroke-linecap="round" stroke-linejoin="round"/>
<path d="M33.2637 18.6376C33.2637 26.8036 26.6438 33.4234 18.4778 33.4234C10.3118 33.4234 3.6919 26.8036 3.6919 18.6376C3.69189 10.4715 10.3118 3.85168 18.4778 3.85168C26.6438 3.85168 33.2637 10.4715 33.2637 18.6376Z" stroke="black" stroke-width="1.41944"/>
<path d="M20.6956 12.7232L14.7813 18.6376L20.6956 24.5519" stroke="black" stroke-width="1.41944" stroke-linecap="round" stroke-linejoin="round"/>
</svg>
