<svg width="88" height="26" viewBox="0 0 88 26" fill="none" xmlns="http://www.w3.org/2000/svg">
<path d="M19.807 3.6239C18.5694 5.96038 17.3882 11.9594 22.5653 17.2639C24.4395 15.2221 26.5118 9.63559 19.807 3.6239Z" fill="black"/>
<path d="M23.9698 22.7199C23.1445 20.0063 24.5843 13.328 36.5795 5.93225C35.693 11.7274 31.8566 22.7199 23.9698 22.7199Z" fill="black"/>
<path d="M21.1761 23.4383C7.95915 24.919 0.221183 10.2386 0.66548 2.23002C1.93383 2.44268 8.73264 5.0743 15.5044 11.7654C21.9431 19.4655 23.8634 23.1373 21.1761 23.4383Z" fill="black"/>
<path d="M43.6052 22.0519V12.0498H46.8536C47.5184 12.0498 48.1126 12.1556 48.6364 12.3671C49.1602 12.5685 49.5732 12.8606 49.8754 13.2434C50.1775 13.6262 50.3286 14.0945 50.3286 14.6485C50.3286 15.3032 50.1624 15.8522 49.83 16.2954C49.4976 16.7285 49.0343 17.0559 48.44 17.2775C47.8457 17.489 47.1558 17.5948 46.3701 17.5948H45.0707V22.0519H43.6052ZM45.0707 17.1566H46.4154C46.9291 17.1566 47.3421 17.0659 47.6543 16.8846C47.9666 16.7033 48.2033 16.4767 48.3645 16.2047C48.5256 15.9328 48.6314 15.6608 48.6818 15.3889C48.7422 15.1169 48.7724 14.8953 48.7724 14.7241C48.7724 14.6636 48.7573 14.5428 48.7271 14.3615C48.7069 14.1801 48.6415 13.9737 48.5307 13.742C48.4299 13.5103 48.2637 13.2887 48.0321 13.0772C47.8105 12.8657 47.4982 12.7045 47.0953 12.5937C46.7831 12.5937 46.4305 12.6189 46.0377 12.6693C45.6449 12.7196 45.3225 12.7801 45.0707 12.8506V17.1566ZM51.3117 22.0519V11.7325H52.5808V22.0519H51.3117ZM58.9499 22.2483L57.726 21.1453C57.3634 21.4777 57.0058 21.7447 56.6533 21.9461C56.3108 22.1375 55.9331 22.2332 55.5201 22.2332C55.1072 22.2332 54.7345 22.0972 54.4021 21.8252C54.0697 21.5533 53.9035 21.1655 53.9035 20.6619C53.9035 20.269 54.0344 19.9417 54.2963 19.6798C54.5582 19.4078 54.8906 19.1913 55.2935 19.0301C55.6964 18.8689 56.1144 18.7481 56.5475 18.6675C56.9807 18.5869 57.3685 18.5365 57.7109 18.5164V17.0962C57.7109 16.2601 57.2274 15.8421 56.2605 15.8421C56.0087 15.8421 55.7166 15.8723 55.3842 15.9328C55.0618 15.9831 54.6992 16.0738 54.2963 16.2047L54.1603 15.827C54.2711 15.7364 54.4575 15.6306 54.7194 15.5097C54.9813 15.3889 55.2834 15.2831 55.6259 15.1924C55.9684 15.0917 56.3159 15.0414 56.6684 15.0414C57.2426 15.0414 57.6857 15.127 57.998 15.2982C58.3102 15.4594 58.5318 15.6709 58.6628 15.9328C58.7937 16.1846 58.8743 16.4515 58.9045 16.7335C58.9347 17.0055 58.9499 17.2523 58.9499 17.4739V20.0424C58.9499 20.3849 58.9952 20.6669 59.0858 20.8885C59.1866 21.1101 59.2974 21.2813 59.4182 21.4022C59.5492 21.5231 59.6549 21.6137 59.7355 21.6742L58.9499 22.2483ZM56.0943 21.5382C56.336 21.4878 56.5778 21.3921 56.8195 21.2511C57.0713 21.1 57.2828 20.9489 57.4541 20.7978C57.6253 20.6367 57.7109 20.5208 57.7109 20.4503V18.8941C56.9555 18.9445 56.3511 19.1107 55.8979 19.3927C55.4547 19.6647 55.2331 19.9568 55.2331 20.269C55.2331 20.5813 55.3137 20.8532 55.4748 21.0849C55.646 21.3065 55.8525 21.4576 56.0943 21.5382ZM61.0123 22.0519V17.3077C61.0123 16.9551 60.9619 16.6731 60.8612 16.4616C60.7705 16.24 60.6648 16.0688 60.5439 15.9479C60.423 15.8169 60.3223 15.7213 60.2417 15.6608L61.0123 15.0867L62.2512 16.1896C62.6239 15.8371 62.9714 15.5601 63.2937 15.3586C63.6261 15.1471 64.0139 15.0414 64.4571 15.0414C64.6888 15.0414 64.9406 15.1018 65.2125 15.2227C65.4946 15.3435 65.7363 15.5702 65.9378 15.9026C66.1392 16.2249 66.2399 16.6983 66.2399 17.3228V22.0519H64.9557V17.4739C64.9557 17.0005 64.8701 16.6379 64.6988 16.386C64.5377 16.1242 64.2355 15.9932 63.7923 15.9932C63.3592 15.9932 62.8606 16.2752 62.2965 16.8393V22.0519H61.0123ZM69.8837 22.2332C69.4707 22.2332 69.1232 22.1123 68.8412 21.8706C68.5592 21.6288 68.4181 21.2209 68.4181 20.6468V15.7666L67.1943 15.5248V15.2227H68.4181V14.6787L69.6873 13.7571V15.2227H71.4852V15.7666H69.6873V20.7223C69.6873 21.0043 69.7427 21.2259 69.8535 21.3871C69.9744 21.5483 70.196 21.6288 70.5183 21.6288C70.6593 21.6288 70.8154 21.6087 70.9866 21.5684C71.1579 21.518 71.3241 21.4626 71.4852 21.4022V21.8252C71.2636 21.926 71.0118 22.0166 70.7298 22.0972C70.4578 22.1879 70.1758 22.2332 69.8837 22.2332ZM71.7764 25.3758L71.9879 24.2729C72.552 24.2527 73.0304 24.1268 73.4232 23.8952C73.8261 23.6635 74.1636 23.3714 74.4355 23.0188C74.7075 22.6764 74.9291 22.3289 75.1003 21.9763L72.0332 15.2227H73.3779L75.6896 20.3446L77.4724 15.2227H78.0466L75.4629 22.2785C75.2413 22.8829 74.9442 23.4167 74.5715 23.8801C74.1988 24.3434 73.7707 24.706 73.2873 24.9679C72.8138 25.2298 72.3102 25.3658 71.7764 25.3758ZM79.2337 15.5399L78.8107 12.8808V11.8232H80.0345V12.8808L79.5963 15.5399H79.2337ZM80.9233 22.0519L83.4314 18.8639L80.9687 15.2227H82.4645L84.1869 17.9725L86.2115 15.2227H86.9518L84.4739 18.2898L87.1784 22.0519H85.6826L83.7336 19.1963L81.6486 22.0519H80.9233Z" fill="black"/>
</svg>
