<svg width="368" height="41" viewBox="0 0 368 41" fill="none" xmlns="http://www.w3.org/2000/svg">
<path d="M6.77568 17.7995L9.81897 22.83V25.7598H10.4322V22.83L13.4755 17.7995H12.7828L10.1256 22.1601L7.49108 17.7995H6.77568ZM14.6991 25.4532C15.1079 25.703 15.5848 25.8279 16.1299 25.8279C16.6636 25.8279 17.1406 25.703 17.5607 25.4532C17.9809 25.2033 18.3102 24.8627 18.5486 24.4085C18.7758 23.9656 18.9007 23.4546 18.9007 22.8755C18.9007 22.3077 18.7758 21.7967 18.5486 21.3538C18.3102 20.9109 17.9809 20.5589 17.5607 20.3091C17.1406 20.0593 16.6636 19.9344 16.1299 19.9344C15.5848 19.9344 15.1079 20.0593 14.6991 20.3091C14.2789 20.5589 13.9496 20.9109 13.7225 21.3538C13.4841 21.7967 13.3705 22.3077 13.3705 22.8755C13.3705 23.4546 13.4841 23.9656 13.7225 24.4085C13.9496 24.8627 14.2789 25.2033 14.6991 25.4532ZM17.2655 24.9989C16.9248 25.2033 16.5501 25.3055 16.1299 25.3055C15.6984 25.3055 15.3237 25.2033 14.9944 24.9989C14.665 24.7945 14.4152 24.5107 14.2335 24.1359C14.0518 23.7725 13.961 23.3524 13.961 22.8755C13.961 22.4099 14.0518 21.9897 14.2335 21.6263C14.4152 21.263 14.665 20.9677 14.9944 20.7633C15.3237 20.5589 15.6984 20.4454 16.1299 20.4454C16.5501 20.4454 16.9248 20.5589 17.2655 20.7633C17.5948 20.9677 17.856 21.263 18.0376 21.6263C18.2193 21.9897 18.3102 22.4099 18.3102 22.8755C18.3102 23.3524 18.2193 23.7725 18.0376 24.1359C17.856 24.5107 17.5948 24.7945 17.2655 24.9989ZM24.831 20.0025H24.2519V22.83C24.2519 23.5909 24.0702 24.1927 23.7295 24.6356C23.3775 25.0784 22.9006 25.2942 22.3101 25.2942C21.765 25.2942 21.3335 25.1239 21.0383 24.7605C20.7317 24.3971 20.584 23.8747 20.584 23.1934V20.0025H20.0049V23.2275C20.0049 24.0905 20.1979 24.7491 20.6067 25.1806C21.0155 25.6121 21.5493 25.8279 22.2192 25.8279C22.7075 25.8279 23.1277 25.7143 23.4683 25.4872C23.809 25.2601 24.0588 24.9422 24.2405 24.5447L24.32 25.7598H24.831V20.0025ZM28.8062 20.0025H28.545C28.0453 20.0025 27.6706 20.1047 27.3981 20.3091C27.1255 20.5135 26.9211 20.7974 26.7849 21.1494L26.694 20.0025H26.1944V25.7598H26.7735V22.8414C26.7735 22.1601 26.8871 21.615 27.1369 21.1948C27.3754 20.7747 27.8069 20.5589 28.4314 20.5589H28.8062V20.0025ZM32.9289 21.3425C32.7017 21.7967 32.5995 22.3077 32.5995 22.8755C32.5995 23.4546 32.7131 23.9656 32.9402 24.4085C33.1673 24.8627 33.4966 25.2033 33.9168 25.4532C34.3369 25.703 34.8139 25.8279 35.3589 25.8279C35.9721 25.8279 36.5059 25.6462 36.9487 25.2828C37.3916 24.9195 37.6868 24.4425 37.8231 23.852H37.2326C37.1191 24.3063 36.8806 24.6583 36.5399 24.9195C36.1879 25.1806 35.7791 25.3055 35.3135 25.3055C34.9047 25.3055 34.5527 25.2147 34.2347 25.0217C33.9168 24.8286 33.667 24.5561 33.4853 24.2154C33.3036 23.8747 33.2014 23.4773 33.2014 23.0231C33.2014 22.9663 33.2014 22.9209 33.2127 22.8868H37.9026C37.9026 22.8414 37.9139 22.7619 37.9139 22.6483C37.8912 22.0919 37.7663 21.6036 37.5392 21.1948C37.3121 20.786 36.9941 20.4794 36.6081 20.2637C36.2106 20.0479 35.7564 19.9344 35.2567 19.9344C34.7344 19.9344 34.2802 20.0593 33.8714 20.3091C33.4626 20.5589 33.156 20.8996 32.9289 21.3425ZM37.3121 22.3985H33.2468C33.2695 22.0124 33.3831 21.6718 33.5761 21.3765C33.7578 21.0813 34.0076 20.8542 34.3029 20.6952C34.5981 20.5362 34.9161 20.4454 35.2681 20.4454C35.8359 20.4454 36.3128 20.6157 36.6762 20.9564C37.0396 21.297 37.2553 21.7853 37.3121 22.3985ZM47.0405 20.5703C46.6544 20.1501 46.1434 19.9344 45.5075 19.9344C44.9965 19.9344 44.565 20.0706 44.2244 20.3205C43.8723 20.5816 43.6112 20.9337 43.4408 21.3765C43.3046 20.9109 43.0661 20.5589 42.7368 20.3091C42.3961 20.0593 41.9987 19.9344 41.5444 19.9344C41.0789 19.9344 40.6928 20.0593 40.3748 20.2977C40.0569 20.5362 39.8184 20.8542 39.6708 21.2403L39.5799 20.0025H39.0803V25.7598H39.6481V22.83C39.6481 22.126 39.807 21.5469 40.1364 21.1153C40.4543 20.6838 40.8972 20.4681 41.4422 20.4681C41.9532 20.4681 42.3507 20.6498 42.6346 20.9904C42.9185 21.3425 43.0661 21.8421 43.0661 22.5007V25.7598H43.6452V22.6256C43.6566 21.967 43.8269 21.4447 44.1449 21.0586C44.4628 20.6725 44.8943 20.4681 45.4394 20.4681C45.939 20.4681 46.3365 20.6498 46.6204 20.9904C46.8929 21.3425 47.0405 21.8421 47.0405 22.5007V25.7598H47.631V22.4667C47.631 21.6263 47.4266 21.0018 47.0405 20.5703ZM54.2196 25.2261H54.0039C53.8449 25.2261 53.72 25.1806 53.6291 25.0784C53.5383 24.9876 53.4929 24.8513 53.4929 24.6696V21.9897C53.4929 21.3311 53.2885 20.8315 52.9024 20.4681C52.5049 20.1161 51.9485 19.9344 51.2331 19.9344C50.5745 19.9344 50.0408 20.0933 49.632 20.3886C49.2232 20.6838 48.9734 21.0926 48.9052 21.615H49.4844C49.5525 21.263 49.7455 20.9791 50.0408 20.7633C50.336 20.5589 50.7335 20.4454 51.2104 20.4454C51.7441 20.4454 52.1643 20.5816 52.4595 20.8542C52.7548 21.1267 52.9137 21.4901 52.9137 21.967V22.4667H50.9606C50.2225 22.4667 49.6547 22.6256 49.2686 22.9209C48.8825 23.2161 48.6895 23.6363 48.6895 24.1813C48.6895 24.6923 48.8712 25.0898 49.2459 25.385C49.6093 25.6803 50.1089 25.8279 50.7335 25.8279C51.2785 25.8279 51.7441 25.7143 52.1189 25.4872C52.4822 25.2601 52.7548 24.9535 52.9365 24.5674V24.8059C52.9137 25.1125 52.9819 25.351 53.1409 25.5099C53.2998 25.6803 53.5383 25.7598 53.879 25.7598H54.2196V25.2261ZM52.9137 22.9663V23.4319C52.9137 23.9997 52.7207 24.4539 52.3346 24.8059C51.9485 25.1579 51.4262 25.3283 50.7675 25.3283C50.3133 25.3283 49.9499 25.2261 49.6774 25.0103C49.4049 24.7945 49.28 24.5107 49.28 24.1473C49.28 23.7725 49.4162 23.4773 49.7001 23.2729C49.9727 23.0685 50.3815 22.9663 50.9152 22.9663H52.9137ZM55.5727 18.0039C55.4932 17.9358 55.391 17.8904 55.2775 17.8904C55.1639 17.8904 55.0617 17.9358 54.9822 18.0039C54.9027 18.0834 54.8687 18.1856 54.8687 18.2992C54.8687 18.4241 54.9027 18.5263 54.9822 18.5944C55.0617 18.6739 55.1639 18.708 55.2775 18.708C55.391 18.708 55.4932 18.6739 55.5727 18.5944C55.6409 18.5263 55.6863 18.4241 55.6863 18.2992C55.6863 18.1856 55.6409 18.0834 55.5727 18.0039ZM54.9936 20.0025V25.7598H55.5727V20.0025H54.9936ZM56.9342 17.8109V25.7598H57.5134V17.8109H56.9342Z" fill="black"/>
<line x1="0.942263" y1="40.3744" x2="330.983" y2="40.3744" stroke="#010101" stroke-width="0.709722" stroke-linecap="round"/>
<rect x="232.142" y="7.79321" width="89.918" height="25.9727" rx="12.9863" fill="#010101"/>
<path d="M255.113 22.4433L253.955 22.4228C253.955 22.8942 254.078 23.3143 254.324 23.6832C254.57 24.052 254.908 24.3287 255.339 24.5336C255.769 24.7386 256.261 24.841 256.835 24.841C257.347 24.841 257.798 24.7488 258.208 24.5644C258.607 24.3799 258.925 24.1135 259.15 23.7754C259.376 23.4475 259.489 23.0684 259.489 22.638C259.489 22.2076 259.376 21.849 259.171 21.5826C258.956 21.3162 258.679 21.1215 258.351 20.978C258.013 20.8448 257.613 20.7321 257.152 20.6502C256.691 20.5682 256.343 20.4965 256.097 20.4247C255.851 20.3632 255.646 20.2608 255.503 20.1173C255.359 19.9841 255.287 19.7997 255.287 19.564C255.287 19.2361 255.41 18.9902 255.656 18.8058C255.902 18.6213 256.24 18.5291 256.66 18.5291C257.091 18.5291 257.439 18.6418 257.726 18.8672C258.003 19.0927 258.167 19.3898 258.208 19.7587H259.366C259.345 19.3283 259.212 18.9492 258.986 18.6111C258.751 18.2832 258.433 18.0168 258.034 17.8221C257.624 17.6376 257.173 17.5352 256.66 17.5352C256.158 17.5352 255.718 17.6274 255.328 17.8016C254.939 17.986 254.642 18.232 254.427 18.5496C254.212 18.8775 254.109 19.2361 254.109 19.646C254.109 20.0968 254.212 20.4555 254.416 20.7219C254.621 20.9985 254.898 21.2035 255.226 21.3367C255.554 21.4699 255.953 21.5724 256.425 21.6543C256.876 21.7363 257.234 21.8183 257.49 21.89C257.736 21.972 257.941 22.0744 258.085 22.2179C258.228 22.3613 258.31 22.5458 258.31 22.7815C258.31 23.1196 258.167 23.386 257.9 23.5704C257.634 23.7549 257.275 23.8471 256.845 23.8471C256.343 23.8471 255.933 23.7241 255.626 23.468C255.318 23.2118 255.144 22.8737 255.113 22.4433ZM265.116 19.5333H264.01V22.1359C264.01 22.679 263.887 23.1093 263.651 23.4167C263.405 23.7241 263.077 23.8778 262.657 23.8778C262.247 23.8778 261.95 23.7446 261.745 23.4782C261.54 23.2118 261.438 22.8224 261.438 22.3101V19.5333H260.331V22.4228C260.331 23.2733 260.516 23.8881 260.905 24.2672C261.284 24.6566 261.786 24.841 262.401 24.841C263.077 24.841 263.62 24.6053 264.02 24.1135L264.143 24.7795H265.116V19.5333ZM270.295 19.7997C269.916 19.5845 269.486 19.4718 269.014 19.4718C268.297 19.4718 267.723 19.7587 267.314 20.312V17.6069H266.207V24.7795H267.17L267.303 24.0213C267.477 24.2775 267.713 24.4824 268 24.6258C268.287 24.7693 268.625 24.841 269.014 24.841C269.486 24.841 269.916 24.7283 270.295 24.5029C270.664 24.2775 270.961 23.9701 271.176 23.5602C271.381 23.1503 271.494 22.6892 271.494 22.1564C271.494 21.6031 271.381 21.1317 271.176 20.7219C270.961 20.3223 270.664 20.0149 270.295 19.7997ZM269.937 23.427C269.65 23.7549 269.281 23.9086 268.83 23.9086C268.369 23.9086 268 23.7446 267.723 23.4167C267.436 23.0888 267.303 22.6687 267.303 22.1462C267.303 21.6338 267.436 21.224 267.723 20.8961C268 20.5784 268.369 20.4145 268.83 20.4145C269.281 20.4145 269.65 20.5784 269.937 20.9063C270.224 21.2342 270.367 21.6441 270.367 22.1564C270.367 22.679 270.224 23.0991 269.937 23.427ZM273.232 23.0479H272.166C272.177 23.6114 272.402 24.052 272.832 24.3697C273.263 24.6873 273.837 24.841 274.544 24.841C274.953 24.841 275.333 24.7795 275.671 24.6463C275.999 24.5131 276.265 24.3184 276.46 24.0725C276.644 23.8266 276.747 23.5295 276.747 23.2016C276.747 22.8327 276.654 22.5458 276.47 22.3306C276.286 22.1154 276.04 21.9617 275.732 21.8593C275.425 21.7568 275.046 21.6851 274.595 21.6338C274.257 21.5928 274.011 21.5621 273.867 21.5314C273.714 21.5006 273.591 21.4494 273.488 21.3674C273.386 21.2854 273.345 21.1727 273.345 21.0088C273.345 20.8039 273.437 20.6297 273.642 20.5067C273.837 20.3837 274.093 20.3223 274.421 20.3223C274.738 20.3223 275.005 20.4042 275.22 20.5579C275.425 20.7116 275.548 20.9063 275.579 21.142H276.654C276.613 20.6092 276.388 20.1993 275.978 19.9022C275.568 19.6152 275.025 19.4615 274.369 19.4615C273.96 19.4615 273.601 19.5333 273.283 19.6665C272.966 19.8099 272.72 20.0046 272.535 20.2505C272.351 20.4965 272.269 20.7834 272.269 21.101C272.269 21.4494 272.351 21.7158 272.535 21.9207C272.72 22.1257 272.955 22.2691 273.253 22.3613C273.55 22.4536 273.929 22.5253 274.39 22.5765C274.718 22.6175 274.964 22.6585 275.128 22.6995C275.292 22.7405 275.415 22.8019 275.517 22.8839C275.609 22.9761 275.661 23.1093 275.661 23.2835C275.661 23.4987 275.548 23.6729 275.343 23.7959C275.138 23.9188 274.861 23.9803 274.533 23.9803C274.154 23.9803 273.847 23.8983 273.611 23.7241C273.376 23.5499 273.253 23.3245 273.232 23.0479ZM281.692 24.3287C282.112 23.9803 282.378 23.509 282.481 22.8942H281.354C281.282 23.2016 281.138 23.4475 280.913 23.6319C280.688 23.8164 280.401 23.8983 280.062 23.8983C279.612 23.8983 279.253 23.7446 278.987 23.4167C278.72 23.0888 278.587 22.6687 278.587 22.1462C278.587 21.6338 278.72 21.224 278.987 20.8961C279.253 20.5784 279.612 20.4145 280.062 20.4145C280.39 20.4145 280.667 20.5067 280.892 20.6809C281.118 20.8653 281.261 21.101 281.343 21.3982H282.481C282.378 20.8039 282.112 20.3428 281.702 19.9944C281.282 19.646 280.749 19.4718 280.093 19.4718C279.56 19.4718 279.099 19.5845 278.7 19.8099C278.3 20.0354 277.993 20.3428 277.777 20.7424C277.552 21.1522 277.45 21.6133 277.45 22.1462C277.45 22.679 277.552 23.1503 277.767 23.5602C277.982 23.9701 278.29 24.2877 278.689 24.5131C279.079 24.7386 279.54 24.841 280.062 24.841C280.718 24.841 281.261 24.6771 281.692 24.3287ZM286.268 19.5333H286.022C285.612 19.5333 285.294 19.605 285.059 19.7485C284.813 19.8919 284.618 20.0763 284.475 20.3223L284.352 19.5333H283.368V24.7795H284.475V22.1462C284.475 21.6953 284.577 21.3162 284.782 21.019C284.987 20.7219 285.315 20.5682 285.776 20.5682H286.268V19.5333ZM288.005 17.6274C287.872 17.5044 287.708 17.4327 287.524 17.4327C287.329 17.4327 287.165 17.5044 287.042 17.6274C286.909 17.7504 286.847 17.9143 286.847 18.0987C286.847 18.2934 286.909 18.4574 287.042 18.5803C287.165 18.7033 287.329 18.7648 287.524 18.7648C287.708 18.7648 287.872 18.7033 288.005 18.5803C288.128 18.4574 288.2 18.2934 288.2 18.0987C288.2 17.9143 288.128 17.7504 288.005 17.6274ZM286.97 19.5333V24.7795H288.077V19.5333H286.97ZM293.25 19.7997C292.871 19.5845 292.441 19.4718 291.969 19.4718C291.252 19.4718 290.678 19.7587 290.268 20.312V17.6069H289.162V24.7795H290.125L290.258 24.0213C290.432 24.2775 290.668 24.4824 290.955 24.6258C291.242 24.7693 291.58 24.841 291.969 24.841C292.441 24.841 292.871 24.7283 293.25 24.5029C293.619 24.2775 293.916 23.9701 294.131 23.5602C294.336 23.1503 294.449 22.6892 294.449 22.1564C294.449 21.6031 294.336 21.1317 294.131 20.7219C293.916 20.3223 293.619 20.0149 293.25 19.7997ZM292.891 23.427C292.605 23.7549 292.236 23.9086 291.785 23.9086C291.324 23.9086 290.955 23.7446 290.678 23.4167C290.391 23.0888 290.258 22.6687 290.258 22.1462C290.258 21.6338 290.391 21.224 290.678 20.8961C290.955 20.5784 291.324 20.4145 291.785 20.4145C292.236 20.4145 292.605 20.5784 292.891 20.9063C293.178 21.2342 293.322 21.6441 293.322 22.1564C293.322 22.679 293.178 23.0991 292.891 23.427ZM295.459 20.7526C295.243 21.1625 295.141 21.6338 295.141 22.1667C295.141 22.6995 295.243 23.1708 295.469 23.5704C295.694 23.9803 296.002 24.2877 296.412 24.5131C296.821 24.7386 297.293 24.841 297.846 24.841C298.471 24.841 298.994 24.6771 299.414 24.3287C299.834 23.9906 300.09 23.5499 300.193 23.0171H299.086C299.004 23.3143 298.85 23.5397 298.625 23.7036C298.389 23.8676 298.102 23.9393 297.764 23.9393C297.334 23.9393 296.985 23.8061 296.729 23.5397C296.463 23.2733 296.319 22.9147 296.299 22.4536V22.3921H300.254C300.275 22.2486 300.285 22.1154 300.285 21.972C300.275 21.4699 300.162 21.0293 299.936 20.6502C299.711 20.2813 299.414 19.9841 299.024 19.7792C298.635 19.5743 298.194 19.4718 297.692 19.4718C297.19 19.4718 296.75 19.5845 296.36 19.8099C295.971 20.0354 295.674 20.3428 295.459 20.7526ZM299.158 21.5826H296.34C296.381 21.2137 296.524 20.9268 296.791 20.7014C297.057 20.476 297.365 20.3632 297.733 20.3632C298.123 20.3632 298.44 20.476 298.697 20.6911C298.953 20.9063 299.106 21.2035 299.158 21.5826Z" fill="white"/>
</svg>
